<svg xmlns="http://www.w3.org/2000/svg" version="1.1" xmlns:xlink="http://www.w3.org/1999/xlink" xmlns:svgjs="http://svgjs.dev/svgjs" viewBox="0 0 800 800"><defs><linearGradient x1="50%" y1="0%" x2="50%" y2="100%" id="ccchaos-grad"><stop stop-color="hsl(1.4, 100%, 67%)" stop-opacity="1" offset="0%"></stop><stop stop-color="hsl(167, 52%, 78%)" stop-opacity="1" offset="100%"></stop></linearGradient></defs><g stroke-width="2" stroke="url(#ccchaos-grad)" fill="none" stroke-linecap="round"><path d="M422.48 114.47C432.88 112.27 443.14 110.63 453.19 109.58 463.2 108.65 472.92 108.37 482.24 108.75 491.38 109.35 499.95 110.66 507.79 112.65 515.26 114.91 521.82 117.87 527.33 121.49 532.36 125.38 536.3 129.91 539.15 135.04 541.75 140.41 543.59 146.33 544.94 152.75 546.83 159.35 549 166.4 551.98 173.84 556.64 181.4 562.96 189.3 571.31 197.5 581.97 205.74 594.72 214.25 609.27 222.97 624.98 231.7 641.06 240.62 656.43 249.7 670.02 258.76 680.72 267.96 687.49 277.29 690.2 286.58 688.35 295.99 682.32 305.51 673.81 315 663.61 324.61 653.5 334.31 646.01 343.99 642.08 353.77 642.93 363.66 649.32 373.53 660.38 383.51 674.8 393.58 690.79 403.65 705.69 413.8 716.98 424.03 723.1 434.26 722.55 444.31 715.58 454.16 703.72 464 688.44 473.61 672.05 482.97 656.93 492.3 644.77 501.35 636.77 510.07 633.81 518.73 635.3 527.03 640.29 534.92 648.09 542.72 656.52 550.07 664.01 556.94 669.94 563.68 672.58 569.91 671.45 575.59 666.86 581.12 658.58 586.1 647.3 590.51 633.85 594.8 618.96 598.54 603.55 601.74 588.24 604.9 573.71 607.58 560.41 609.83 548.5 612.17 538.13 614.18 529.18 615.94 521.66 617.95 515.16 619.85 509.35 621.7 504.38 624.01 499.55 626.4 494.59 628.96 489.9 632.12 484.73 635.53 478.96 639.22 473.15 643.58 466.62 648.22 459.34 653.1 451.98 658.58 443.9 664.2 435.13 669.85 426.32 675.85 416.87 681.68 406.84 687.18 396.8 692.65 386.46 697.4 375.88 701.31 365.33 704.83 354.56 707.32 343.65 708.73 332.81 709.52 321.87 709.14 310.91 707.61 300.12 705.41 289.43 702.07 278.97 697.69 268.84 692.71 259.11 686.79 249.95 680.04 241.31 672.85 233.41 664.99 226.35 656.56 219.89 647.9 214.31 638.82 209.59 629.43 205.24 619.98 201.5 610.32 198.22 600.55 194.73 590.84 191.24 581.08 187.54 571.31 183.02 561.67 177.97 552.05 172.33 542.47 165.78 533.04 158.81 523.64 151.64 514.28 144.27 505.05 137.33 495.83 131.19 486.62 125.82 477.51 121.78 468.37 119.21 459.2 117.67 450.1 117.41 440.92 118.19 431.69 119.14 422.49 120.33 413.21 121.39 403.85 121.5 394.5 120.98 385.06 119.83 375.55 117.7 366.04 115.5 356.68 113.62 347.5 111.99 338.32 111.51 329.32 112.42 320.54 114.42 311.78 117.92 303.24 122.72 294.95 128.18 286.7 134.32 278.72 140.74 271.04 146.74 263.4 152.38 256.08 157.49 249.11 161.58 242.18 165.09 235.6 168.17 229.4 170.57 223.23 173.01 217.43 175.77 212.01 178.65 206.59 182.34 201.54 186.98 196.86 192.33 192.14 198.78 187.75 206.26 183.69 214.51 179.54 223.62 175.66 233.39 172.06 243.63 168.29 254.26 164.75 265.1 161.43 276.06 157.87 287.03 154.49 297.94 151.28 308.76 147.8 319.45 144.46 330 141.29 340.41 137.84 350.73 134.55 360.99 131.46 371.16 128.13 381.34 125.03 391.57 122.22 401.77 119.26 412.07 116.66 422.47 114.47" stroke-dasharray="5 3" transform="rotate(0, 400, 400)" opacity="0.05"></path><path d="M419.78 125.48C429.73 123.31 439.32 121.67 448.52 120.59 457.66 119.62 466.33 119.28 474.42 119.56 482.36 120.04 489.6 121.2 496.05 123 504.89 126.42 517.78 136.87 522.12 143.79 524.92 148.83 527.43 154.41 530 160.48 533.47 166.72 537.67 173.42 543.03 180.5 550.11 187.71 558.87 195.27 569.46 203.13 581.83 211.05 595.71 219.24 610.61 227.65 625.8 236.09 640.53 244.72 653.8 253.51 664.79 262.3 672.6 271.24 676.53 280.31 676.79 289.35 673.13 298.51 666.11 307.77 657.49 317.01 648 326.35 639.25 335.78 633.4 345.19 631.12 354.69 633.32 364.27 640.49 373.84 651.71 383.5 665.7 393.21 680.89 402.92 694.89 412.7 705.5 422.51 711.4 432.32 711.21 441.94 705.12 451.32 694.42 460.7 680.3 469.83 664.76 478.69 649.93 487.52 637.32 496.05 628.19 504.24 623.48 512.38 622.93 520.16 625.9 527.53 631.99 534.81 639.37 541.66 646.65 548.05 655.4 557.22 654.4 572.89 643.52 579.35 632.8 583.4 620.09 586.97 606.18 590.05 591.64 593.13 577.14 595.81 563.21 598.11 550.08 600.53 538.08 602.68 527.29 604.61 517.7 606.82 509.19 608.95 501.55 611.04 494.82 613.57 488.57 616.2 482.53 618.96 476.94 622.29 471.21 625.84 465.18 629.62 459.28 634.01 452.88 638.63 445.91 643.44 438.94 648.77 431.35 654.21 423.14 659.65 414.9 665.38 406.06 670.94 396.65 676.17 387.23 681.37 377.5 685.89 367.53 689.62 357.61 693.02 347.5 695.45 337.29 696.89 327.19 697.77 317.08 697.58 307.05 696.31 297.25 694.43 287.66 691.49 278.43 687.57 269.56 683.09 261.2 677.71 253.47 671.53 246.23 664.92 239.71 657.64 234 649.79 228.72 641.69 224.16 633.15 220.26 624.27 216.47 615.3 213.06 606.08 209.83 596.71 206.16 587.36 202.28 577.91 198.04 568.42 192.91 559.03 187.23 549.62 181 540.24 174.01 530.97 166.75 521.72 159.48 512.5 152.22 503.39 145.56 494.3 139.85 485.22 135 476.23 131.51 467.23 129.47 458.22 128.41 449.27 128.53 440.28 129.57 431.27 130.68 422.28 131.95 413.24 133.02 404.16 133.1 395.09 132.53 385.96 131.31 376.8 129.12 367.64 126.8 358.65 124.77 349.86 122.93 341.08 122.18 332.49 122.75 324.13 124.39 315.78 127.52 307.67 132 299.82 137.24 291.98 143.27 284.43 149.73 277.17 155.94 269.94 161.93 263.03 167.48 256.44 172.08 249.88 176.08 243.66 179.55 237.79 182.22 231.94 184.71 226.43 187.27 221.27 189.7 216.1 192.69 211.27 196.4 206.78 200.61 202.23 205.81 197.98 211.97 194.03 218.85 189.98 226.66 186.18 235.24 182.63 244.39 178.91 254.11 175.4 264.22 172.09 274.62 168.55 285.2 165.17 295.85 161.96 306.57 158.49 317.24 155.17 327.82 152 338.37 148.58 348.81 145.31 359.13 142.24 369.41 138.96 379.6 135.9 389.71 133.13 399.8 130.22 409.83 127.65 419.77 125.48" stroke-dasharray="3 1" transform="rotate(4.04, 400, 400)" opacity="0.09"></path><path d="M413 136.5C422.4 134.35 431.31 132.72 439.71 131.62 448.05 130.62 455.8 130.21 462.92 130.4 473.06 131.28 489.52 136.51 495.88 140.86 499.92 144.2 503.47 148.13 506.74 152.61 510.44 157.32 514.3 162.55 518.61 168.26 524 174.14 530.38 180.47 538.04 187.18 547.24 194.03 557.92 201.22 570.04 208.72 583.32 216.3 597.43 224.14 611.81 232.21 625.74 240.32 638.53 248.64 649.31 257.12 657.57 265.61 662.59 274.25 663.96 283.01 662.2 291.77 657.21 300.65 649.68 309.62 641.34 318.58 632.83 327.63 625.55 336.75 621.33 345.87 620.6 355.06 623.99 364.31 631.79 373.56 643.05 382.86 656.57 392.21 670.94 401.55 684.06 410.93 694.02 420.32 699.7 429.71 699.83 438.89 694.55 447.81 684.97 456.73 672.02 465.39 657.41 473.76 643.01 482.11 630.2 490.15 620.2 497.84 613.98 505.49 611.54 512.77 612.51 519.66 616.73 526.47 622.71 532.87 629.29 538.82 638.6 547.39 643.55 562.07 636.99 568.18 629.21 572.05 619.11 575.49 607.33 578.5 594.39 581.55 580.84 584.25 567.23 586.62 553.81 589.14 541.01 591.44 529.05 593.56 517.94 595.96 507.78 598.29 498.49 600.61 490.04 603.35 482.23 606.18 474.87 609.13 468.04 612.59 461.36 616.25 454.66 620.09 448.19 624.48 441.49 629.06 434.47 633.79 427.49 638.97 420.09 644.21 412.22 649.43 404.34 654.91 395.98 660.19 387.15 665.15 378.32 670.09 369.25 674.38 360.02 677.95 350.84 681.21 341.56 683.58 332.28 685.03 323.12 685.99 314.05 685.96 305.18 684.93 296.54 683.35 288.22 680.78 280.34 677.29 272.8 673.28 265.8 668.42 259.45 662.79 253.47 656.75 248.15 650.05 243.51 642.78 239.1 635.25 235.21 627.26 231.77 618.91 228.18 610.44 224.72 601.7 221.23 592.76 217.13 583.81 212.68 574.74 207.77 565.59 202 556.49 195.71 547.36 188.97 538.22 181.66 529.17 174.26 520.12 167.04 511.1 160.04 502.16 153.79 493.24 148.6 484.33 144.34 475.51 141.43 466.68 139.94 457.86 139.33 449.09 139.8 440.3 141.07 431.51 142.31 422.75 143.62 413.96 144.66 405.16 144.71 396.37 144.08 387.56 142.8 378.74 140.54 369.91 138.14 361.29 135.97 352.88 133.95 344.46 132.94 336.27 133.17 328.31 134.43 320.35 137.17 312.64 141.26 305.19 146.2 297.76 152.04 290.6 158.44 283.73 164.77 276.88 171.03 270.33 176.97 264.1 182.09 257.88 186.63 251.98 190.6 246.41 195.07 238.21 202.61 223.4 206.94 216.74 210.24 212.34 214.34 208.21 219.29 204.36 224.82 200.39 231.26 196.65 238.51 193.15 246.34 189.47 254.85 185.98 263.88 182.68 273.31 179.16 283.08 175.79 293.06 172.58 303.23 169.13 313.48 165.82 323.71 162.66 334 159.27 344.22 156.04 354.3 153 364.41 149.76 374.38 146.75 384.17 144.02 393.97 141.16 403.6 138.63 412.99 136.5" stroke-dasharray="8 6" transform="rotate(8.08, 400, 400)" opacity="0.13"></path><path d="M403.54 147.51C412.35 145.4 420.62 143.77 428.34 142.66 436.02 141.63 443.1 141.17 449.57 141.27 458.89 141.98 474.55 146.67 481.21 150.65 485.74 153.72 490.13 157.35 494.58 161.52 499.65 165.89 505.18 170.77 511.42 176.12 518.74 181.64 527.11 187.59 536.66 193.92 547.42 200.38 559.31 207.2 572.12 214.31 585.46 221.52 598.97 229 612.07 236.7 624.16 244.46 634.61 252.43 642.72 260.56 648.3 268.72 650.77 277.03 649.97 285.47 646.66 293.91 640.83 302.47 633.23 311.11 625.51 319.76 618.18 328.49 612.44 337.29 609.81 346.08 610.51 354.94 614.93 363.84 623.21 372.74 634.41 381.68 647.39 390.64 660.95 399.6 673.21 408.57 682.53 417.54 687.98 426.5 688.41 435.23 683.89 443.71 675.38 452.17 663.59 460.37 649.96 468.27 636.14 476.15 623.35 483.72 612.72 490.94 605.27 498.13 601.13 504.96 600.2 511.4 602.47 517.79 606.81 523.77 612.28 529.34 621.27 537.38 630.38 551.24 627.62 557.07 622.7 560.81 615.39 564.16 606.12 567.14 595.39 570.18 583.54 572.92 571.07 575.4 558.27 578.02 545.57 580.47 533.27 582.77 521.39 585.35 510.2 587.89 499.73 590.42 489.9 593.34 480.73 596.34 472.12 599.44 464.01 603.02 456.25 606.75 448.7 610.64 441.42 615.01 434.15 619.52 426.8 624.14 419.55 629.16 412.08 634.21 404.35 639.2 396.64 644.42 388.62 649.44 380.3 654.14 371.98 658.82 363.57 662.89 355.12 666.28 346.72 669.4 338.34 671.71 330.08 673.16 321.92 674.18 313.97 674.29 306.31 673.47 298.85 672.16 291.79 669.94 285.2 666.85 278.87 663.29 273.08 658.92 267.87 653.82 262.88 648.33 258.43 642.19 254.49 635.49 250.57 628.53 246.96 621.11 243.57 613.3 239.84 605.36 236.04 597.12 232.02 588.66 227.31 580.15 222.18 571.49 216.56 562.72 210.17 553.98 203.36 545.17 196.25 536.33 188.78 527.55 181.41 518.76 174.42 509.98 167.81 501.26 162.09 492.55 157.51 483.86 153.88 475.24 151.59 466.62 150.62 458.02 150.44 449.46 151.22 440.9 152.67 432.36 154 423.84 155.32 415.31 156.32 406.8 156.31 398.29 155.62 389.79 154.28 381.3 151.98 372.81 149.52 364.54 147.23 356.49 145.05 348.43 143.79 340.61 143.7 333.03 144.57 325.44 146.87 318.11 150.54 311.04 155.1 303.97 160.66 297.18 166.9 290.67 173.25 284.16 179.68 277.95 185.94 272.04 191.53 266.13 196.61 260.51 201.14 255.21 206.39 247.39 214.48 233.16 218.38 226.73 222.7 220.44 235.19 208.92 243.68 203.6 250.11 199.96 257.26 196.49 265.02 193.2 273.2 189.69 281.85 186.34 290.82 183.13 300.07 179.7 309.51 176.41 319.02 173.28 328.68 169.92 338.33 166.73 347.89 163.72 357.52 160.54 367.01 157.59 376.3 154.89 385.63 152.1 394.72 149.62 403.53 147.51" stroke-dasharray="2 3" transform="rotate(12.12, 400, 400)" opacity="0.16"></path><path d="M393.34 158.52C401.56 156.45 409.29 154.84 416.52 153.71 423.72 152.67 430.42 152.16 436.61 152.18 445.69 152.72 462.01 156.89 469.72 160.51 475.18 163.32 480.77 166.66 486.69 170.51 493.28 174.56 500.5 179.09 508.5 184.07 517.44 189.22 527.31 194.78 538.13 200.73 549.72 206.8 561.99 213.22 574.64 219.94 587.25 226.76 599.45 233.85 610.69 241.17 620.54 248.55 628.46 256.14 633.93 263.9 637.02 271.7 637.31 279.65 634.81 287.73 630.45 295.82 624.25 304.03 616.97 312.32 610.14 320.63 604.15 329.01 599.97 337.45 598.84 345.9 600.81 354.39 606.1 362.92 614.72 371.45 625.76 380.01 638.17 388.57 650.91 397.14 662.34 405.7 671.05 414.23 676.27 422.77 676.94 431.06 673.13 439.09 665.64 447.11 654.98 454.86 642.38 462.31 629.27 469.75 616.68 476.87 605.69 483.66 597.27 490.42 591.68 496.83 588.99 502.87 589.36 508.87 591.93 514.49 595.97 519.73 603.9 527.31 615.28 540.49 615.57 546.1 613.21 549.74 608.58 553.04 601.94 556.02 593.74 559.08 584.08 561.89 573.41 564.46 562.01 567.21 550.23 569.8 538.41 572.28 526.62 575.03 515.15 577.74 504.16 580.45 493.55 583.53 483.48 586.67 473.95 589.91 464.81 593.56 456.1 597.35 447.74 601.25 439.65 605.57 431.74 610.01 423.96 614.51 416.29 619.36 408.63 624.2 400.91 628.97 393.22 633.93 385.42 638.68 377.52 643.13 369.61 647.55 361.79 651.4 354.08 654.62 346.4 657.6 338.88 659.83 331.59 661.28 324.38 662.35 317.47 662.57 310.92 661.95 304.5 660.89 298.51 658.98 292.99 656.27 287.61 653.13 282.71 649.22 278.29 644.62 273.92 639.66 269.94 634.07 266.28 627.93 262.45 621.54 258.75 614.68 255.06 607.43 250.89 600.02 246.51 592.3 241.81 584.34 236.41 576.32 230.57 568.1 224.3 559.76 217.41 551.41 210.23 542.97 202.93 534.48 195.49 526.03 188.33 517.54 181.72 509.05 175.65 500.6 170.56 492.15 166.65 483.72 163.69 475.34 162 466.96 161.54 458.61 161.75 450.29 162.79 441.99 164.38 433.7 165.76 425.45 167.05 417.2 167.98 408.98 167.9 400.77 167.16 392.57 165.76 384.41 163.44 376.26 160.92 368.32 158.55 360.62 156.23 352.91 154.74 345.44 154.33 338.21 154.82 330.98 156.68 324 159.88 317.28 164.01 310.56 169.2 304.1 175.17 297.92 181.41 291.73 187.9 285.82 194.38 280.2 200.35 274.56 205.93 269.21 211.03 264.15 217.17 256.64 226.44 242.94 230.35 236.7 234.14 230.56 244.21 219.24 250.98 213.97 256.11 210.36 261.93 206.91 268.36 203.63 275.19 200.15 282.54 196.81 290.31 193.61 298.37 190.21 306.73 186.94 315.28 183.83 324 180.52 332.8 177.37 341.6 174.42 350.48 171.29 359.29 168.39 367.94 165.76 376.63 163.02 385.11 160.59 393.33 158.53" stroke-dasharray="9 11" transform="rotate(16.16, 400, 400)" opacity="0.20"></path><path d="M384.52 169.54C392.2 167.5 399.5 165.92 406.43 164.79 413.35 163.73 419.92 163.17 426.15 163.12 432.44 163.2 438.49 163.82 444.36 164.95 450.42 166.26 456.46 168.1 462.62 170.46 469.17 173.01 476.05 176.07 483.4 179.61 491.36 183.33 499.97 187.51 509.3 192.13 519.31 196.91 530.02 202.09 541.32 207.63 552.96 213.31 564.81 219.33 576.54 225.64 587.75 232.05 598.1 238.73 607.11 245.65 614.55 252.63 619.94 259.82 622.97 267.19 623.92 274.6 622.46 282.17 618.78 289.86 613.84 297.58 607.7 305.41 601.09 313.32 595.36 321.26 590.78 329.27 588.14 337.33 588.4 345.4 591.49 353.51 597.49 361.65 606.31 369.8 617.1 377.96 628.9 386.11 640.83 394.27 651.45 402.41 659.56 410.51 664.55 418.61 665.45 426.47 662.28 434.06 655.75 441.65 646.2 448.97 634.66 455.99 622.35 463 610.15 469.71 599.03 476.1 589.92 482.46 583.14 488.49 578.9 494.17 577.83 502.47 586.92 517.26 593.4 523.75 598.77 529.87 599.78 540.54 594.49 545.18 588.85 548.28 581.63 551.16 573.13 553.84 563.69 556.7 553.5 559.44 542.87 562.08 531.94 564.98 520.97 567.85 510.18 570.72 499.49 573.92 489.14 577.18 479.2 580.51 469.5 584.22 460.21 588.02 451.29 591.91 442.59 596.18 434.18 600.51 426.02 604.88 417.97 609.55 410.09 614.19 402.33 618.72 394.61 623.43 386.96 627.92 379.38 632.11 371.8 636.28 364.45 639.92 357.37 642.96 350.29 645.81 343.49 647.96 337.02 649.39 327.54 650.65 310.57 648.71 303.16 645.53 298.38 642.78 293.98 639.31 289.93 635.19 285.78 630.73 281.86 625.67 278.09 620.08 274.01 614.24 269.89 607.94 265.64 601.25 260.85 594.39 255.76 587.21 250.32 579.77 244.24 572.24 237.78 564.51 230.99 556.62 223.76 548.71 216.42 540.68 209.14 532.58 201.92 524.5 195.16 516.36 189.09 508.2 183.68 500.07 179.29 491.93 176.09 483.79 173.79 475.69 172.69 467.59 172.7 459.52 173.25 451.48 174.5 443.45 176.18 435.46 177.57 427.48 178.8 419.52 179.64 411.61 179.49 403.7 178.69 395.82 177.25 387.99 174.91 380.16 172.37 372.56 169.93 365.19 167.49 357.82 165.8 350.68 165.09 343.79 165.2 336.9 166.61 330.25 169.32 323.85 172.96 317.45 177.7 311.3 183.31 305.41 189.33 299.52 195.74 293.88 202.3 288.52 208.54 283.14 214.53 278.01 220.14 273.16 227.21 265.95 238.1 252.7 242.44 246.62 246.2 240.62 254.86 229.46 260.35 224.24 264.41 220.67 269.07 217.24 274.3 213.97 279.83 210.51 285.91 207.19 292.43 204.02 299.23 200.65 306.39 197.42 313.83 194.34 321.44 191.08 329.24 187.98 337.12 185.07 345.1 182.02 353.09 179.18 361.02 176.6 368.98 173.93 376.83 171.56 384.51 169.54" stroke-dasharray="2 7" transform="rotate(20.200000000000003, 400, 400)" opacity="0.24"></path><path d="M378.89 180.55C386.1 178.56 393.1 177 399.89 175.87 406.69 174.81 413.31 174.22 419.8 174.09 426.37 174.09 432.89 174.59 439.44 175.58 446.2 176.72 453.13 178.36 460.32 180.49 467.88 182.79 475.85 185.57 484.31 188.81 493.24 192.21 502.73 196.06 512.76 200.31 523.15 204.72 533.95 209.52 544.96 214.66 555.9 219.94 566.63 225.55 576.81 231.44 586.16 237.44 594.34 243.7 600.98 250.19 606.04 256.76 609.11 263.54 610.04 270.49 609.28 277.49 606.57 284.64 602.2 291.93 597.15 299.25 591.45 306.68 585.77 314.19 581.28 321.73 578.15 329.34 576.96 337 578.48 344.67 582.52 352.39 589.06 360.12 597.96 367.86 608.42 375.62 619.58 383.35 630.7 391.09 640.55 398.81 648.08 406.48 652.83 414.15 653.91 421.58 651.33 428.75 645.7 435.91 637.23 442.82 626.76 449.44 615.33 456.04 603.67 462.36 592.65 468.37 583.11 474.37 575.43 480.05 569.89 485.41 566.31 493.27 570.76 507.33 576.02 513.56 583.76 524.75 578.1 539.29 569.48 543.56 562.27 546.53 554.07 549.39 545.15 552.18 535.7 555.2 525.9 558.21 515.97 561.21 505.9 564.51 495.92 567.86 486.16 571.25 476.48 574.98 467.08 578.78 458.01 582.63 449.07 586.81 440.43 591.03 432.09 595.25 423.84 599.74 415.84 604.16 408.08 608.47 400.35 612.92 392.82 617.16 385.49 621.1 378.16 625.02 371.18 628.45 364.56 631.32 357.93 634.02 351.66 636.09 345.76 637.49 337.09 638.81 321.59 637.39 314.71 634.66 308.01 630.74 295.38 619.28 289.08 611.94 284.48 606.64 279.75 600.89 274.79 594.75 269.3 588.44 263.51 581.8 257.38 574.89 250.73 567.88 243.82 560.65 236.72 553.25 229.38 545.81 222.09 538.23 215.05 530.55 208.26 522.88 202.06 515.13 196.67 507.34 191.99 499.57 188.36 491.77 185.88 483.97 184.23 476.19 183.67 468.41 184.1 460.65 184.93 452.91 186.34 445.19 188.06 437.5 189.42 429.82 190.57 422.17 191.3 414.57 191.07 406.98 190.21 399.42 188.73 391.92 186.39 384.41 183.84 377.14 181.36 370.1 178.83 363.06 176.96 356.24 175.99 349.67 175.73 343.09 176.69 336.75 178.89 330.65 182 324.55 186.23 318.68 191.39 313.07 197.06 307.44 203.27 302.06 209.76 296.93 216.13 291.77 222.4 286.85 228.41 282.19 233.84 277.47 238.85 272.99 243.43 268.75 249.09 262.38 258.34 250.57 262.56 245.07 266.66 239.57 276.63 229.16 282.81 224.2 287.27 220.78 292.23 217.49 297.64 214.34 303.25 211.01 309.26 207.82 315.61 204.78 322.11 201.58 328.87 198.55 335.81 195.7 342.84 192.72 349.99 189.95 357.19 187.43 364.43 184.84 371.67 182.53 378.88 180.55" stroke-dasharray="10 9" transform="rotate(24.24, 400, 400)" opacity="0.28"></path><path d="M377.62 191.56C384.45 189.63 391.23 188.1 397.98 186.98 404.75 185.91 411.52 185.29 418.32 185.1 425.22 185.03 432.23 185.42 439.41 186.27 446.79 187.25 454.43 188.71 462.4 190.61 470.65 192.67 479.31 195.19 488.37 198.13 497.71 201.22 507.43 204.73 517.44 208.64 527.53 212.68 537.69 217.09 547.71 221.85 557.36 226.72 566.45 231.91 574.68 237.39 581.92 242.96 587.84 248.79 592.17 254.86 595.06 260.99 596.15 267.34 595.42 273.85 593.44 280.43 590 287.16 585.41 294.02 580.65 300.91 575.7 307.92 571.15 315.01 567.98 322.13 566.26 329.33 566.43 336.57 569.04 343.83 573.87 351.13 580.79 358.44 589.65 365.76 599.71 373.09 610.2 380.41 620.53 387.72 629.62 395.01 636.6 402.25 641.1 409.49 642.34 416.5 640.3 423.26 635.51 430.02 628.07 436.52 618.66 442.76 608.18 448.98 597.19 454.94 586.46 460.61 576.76 466.26 568.45 471.63 561.87 476.71 556.1 484.16 555.76 497.6 559.29 503.62 567.17 514.6 567.55 529.22 562.12 533.63 557.14 536.69 551.07 539.67 544.11 542.57 536.52 545.7 528.34 548.81 519.77 551.91 510.89 555.29 501.87 558.69 492.84 562.12 483.74 565.84 474.76 569.61 465.99 573.41 457.24 577.48 448.73 581.57 440.5 585.63 432.31 589.92 424.38 594.13 416.73 598.2 409.1 602.4 401.72 606.39 394.6 610.08 387.48 613.77 380.76 616.98 374.44 619.69 365.12 623.23 348.29 626.94 340.69 627.01 333.29 625.98 319.46 620.25 312.78 615.65 308.07 612.12 303.33 608.06 298.51 603.5 293.27 598.72 287.84 593.5 282.17 587.9 276.04 582.14 269.63 576.05 262.98 569.67 255.98 563.19 248.84 556.48 241.67 549.58 234.46 542.63 227.47 535.52 220.89 528.3 214.69 521.06 209.2 513.74 204.58 506.36 200.69 498.98 197.84 491.56 196.07 484.13 195.03 476.71 194.96 469.28 195.74 461.86 196.8 454.46 198.3 447.06 200.01 439.7 201.3 432.35 202.35 425.03 202.96 417.75 202.65 410.48 201.72 403.25 200.22 396.08 197.89 388.91 195.35 381.96 192.85 375.24 190.26 368.52 188.25 362.02 187.02 355.75 186.43 349.47 186.96 343.42 188.64 337.61 191.2 331.78 194.86 326.18 199.49 320.82 204.72 315.44 210.58 310.28 216.86 305.36 223.19 300.41 229.57 295.68 235.85 291.18 241.71 286.63 247.25 282.29 252.43 278.16 259.09 271.96 270.01 260.39 274.71 254.98 278.94 249.55 288.12 239.24 293.45 234.32 299.24 229.31 313.04 219.73 320.99 215.17 326.5 212.04 332.33 209.07 338.43 206.29 344.58 203.39 350.95 200.7 357.5 198.25 364.07 195.73 370.78 193.49 377.61 191.57" stroke-dasharray="3 11" transform="rotate(28.28, 400, 400)" opacity="0.32"></path><path d="M380.96 202.58C387.49 200.7 394.11 199.21 400.84 198.1 407.59 197.03 414.49 196.38 421.54 196.15 428.67 196 436.01 196.3 443.6 197.01 451.33 197.85 459.35 199.13 467.68 200.82 476.17 202.66 484.97 204.91 494.02 207.57 503.16 210.37 512.46 213.55 521.79 217.11 530.95 220.79 539.9 224.83 548.42 229.19 556.35 233.67 563.51 238.45 569.63 243.5 574.74 248.65 578.51 254.05 580.79 259.67 581.87 265.37 581.43 271.27 579.55 277.35 576.85 283.48 573.15 289.77 568.79 296.19 564.64 302.64 560.67 309.22 557.36 315.87 555.53 322.56 555.15 329.32 556.52 336.13 560.07 342.96 565.5 349.83 572.65 356.71 581.36 363.61 590.95 370.51 600.76 377.39 610.31 384.28 618.67 391.15 625.11 397.96 629.37 404.78 630.74 411.37 629.18 417.74 625.17 424.1 618.71 430.22 610.35 436.09 600.85 441.96 590.63 447.57 580.38 452.93 570.75 458.27 562.09 463.36 554.77 468.18 547.16 475.27 542.23 488.17 543.71 494.01 550.21 504.83 554.04 519.53 551.21 524.06 548.19 527.2 544.11 530.27 539.11 533.27 533.47 536.48 527.11 539.66 520.19 542.83 512.88 546.24 505.21 549.67 497.33 553.1 489.28 556.8 481.16 560.51 473.09 564.22 464.97 568.18 456.96 572.12 449.12 576.01 441.3 580.09 433.67 584.08 426.27 587.93 418.89 591.87 411.73 595.61 404.82 599.07 397.91 602.52 391.38 605.53 385.23 608.06 376.13 611.41 359.5 615.06 351.82 615.26 344.19 614.48 329.38 609.6 321.93 605.56 316.67 602.45 311.31 598.84 305.81 594.76 299.96 590.48 293.9 585.78 287.62 580.71 281.01 575.48 274.22 569.92 267.28 564.08 260.18 558.14 253.08 551.95 246.11 545.56 239.28 539.12 232.81 532.5 226.88 525.76 221.43 518.99 216.75 512.12 212.96 505.17 209.88 498.22 207.79 491.21 206.68 484.17 206.2 477.14 206.55 470.09 207.6 463.04 208.82 456 210.36 448.96 212.02 441.95 213.21 434.95 214.13 427.97 214.61 421.03 214.2 414.09 213.22 407.2 211.7 400.36 209.39 393.52 206.88 386.9 204.39 380.49 201.76 374.08 199.63 367.88 198.2 361.91 197.36 353.04 202.13 336.36 207.7 328.56 212.38 323.4 217.77 318.46 223.7 313.73 229.82 308.97 236.14 304.41 242.51 300.06 248.63 295.66 254.57 291.45 260.23 287.43 267.82 281.39 280.64 270.05 286.12 264.72 290.92 259.37 300.36 249.18 305.39 244.33 310.6 239.39 322.67 229.96 329.6 225.5 334.37 222.44 339.49 219.55 344.92 216.84 350.37 214.03 356.12 211.42 362.13 209.05 368.15 206.62 374.43 204.45 380.95 202.58" stroke-dasharray="9 8" transform="rotate(32.32, 400, 400)" opacity="0.35"></path><path d="M388.24 213.59C394.51 211.78 400.98 210.32 407.64 209.23 414.31 208.18 421.21 207.51 428.32 207.23 435.48 207.03 442.9 207.23 450.55 207.82 458.27 208.52 466.24 209.63 474.43 211.13 482.65 212.75 491.04 214.76 499.51 217.14 507.9 219.65 516.22 222.53 524.33 225.75 532.12 229.09 539.46 232.76 546.17 236.73 554.79 243 565.56 257.03 567.14 264.7 566.87 269.95 565.4 275.41 562.87 281.04 559.94 286.72 556.42 292.56 552.62 298.53 549.34 304.53 546.5 310.65 544.48 316.87 543.94 323.1 544.78 329.42 547.21 335.79 551.5 342.18 557.37 348.61 564.61 355.05 573.07 361.51 582.14 367.98 591.26 374.44 600.04 380.9 607.7 387.34 613.63 393.73 617.64 400.12 619.1 406.32 617.98 412.3 614.68 418.27 609.14 424.03 601.8 429.56 593.3 435.08 583.95 440.38 574.31 445.44 564.96 450.5 556.22 455.32 548.44 459.91 539.43 466.68 530.33 479.1 529.65 484.79 533.59 495.47 538.32 510.24 537.28 514.86 534.57 519.62 523.93 529.13 516.39 533.95 510.76 537.37 504.63 540.79 498.13 544.2 491.41 547.83 484.46 551.47 477.38 555.08 470.21 558.89 462.99 562.67 455.82 566.38 448.63 570.26 441.51 574.02 434.53 577.64 427.55 581.34 420.72 584.83 414.04 588.06 407.37 591.27 401.01 594.08 394.95 596.45 385.95 599.6 369.08 603.15 361.06 603.46 352.98 602.9 336.84 598.78 328.55 595.26 322.75 592.54 316.82 589.35 310.75 585.73 304.41 581.92 297.91 577.71 291.27 573.15 284.43 568.44 277.52 563.41 270.6 558.09 263.67 552.68 256.89 547.01 250.39 541.15 244.15 535.21 238.4 529.1 233.26 522.85 228.66 516.57 224.85 510.17 221.91 503.68 219.63 497.18 218.25 490.6 217.75 483.99 217.74 477.37 218.43 470.72 219.68 464.07 220.99 457.41 222.51 450.75 224.07 444.11 225.14 437.47 225.91 430.85 226.25 424.26 225.75 417.68 224.72 411.13 223.18 404.63 220.92 398.13 218.45 391.83 215.98 385.74 212.24 376.69 208.22 359.6 208.79 351.55 210.23 346.23 212.69 341.12 216.09 336.21 220.15 331.27 224.98 326.52 230.42 321.98 236.17 317.39 242.25 312.99 248.52 308.79 254.7 304.52 260.84 300.44 266.83 296.53 272.46 292.55 277.84 288.73 282.96 285.07 289.82 279.53 301.85 269.02 307.32 264.03 312.37 258.99 322.75 249.35 328.36 244.76 334.14 240.12 347.17 231.39 354.49 227.36 359.46 224.64 364.77 222.13 370.39 219.84 376.01 217.49 381.96 215.4 388.23 213.59" stroke-dasharray="4 6" transform="rotate(36.36, 400, 400)" opacity="0.39"></path><path d="M397.94 224.61C403.98 222.86 410.25 221.45 416.73 220.38 423.22 219.34 429.94 218.66 436.86 218.34 450.79 217.91 465.52 219 480.7 221.53 495.64 224.47 510.36 228.87 523.88 234.56 535.75 240.67 544.91 248.01 550.26 256.37 552.68 265.06 551.03 274.66 545.94 284.96 540.6 295.47 535.34 306.58 532.58 318.07 535.36 329.66 543.5 341.57 556.65 353.57 564.77 359.59 573.27 365.63 581.69 371.65 589.73 377.68 596.71 383.7 602.14 389.68 606.68 398.56 601.71 415.38 593.01 423.28 577.22 433.68 559.36 443.27 542.75 452.01 529.96 460.79 521.61 468.79 517.39 476.02 517.38 483.43 518.97 490.23 520.4 496.48 521.99 503.14 521.15 509.47 517.47 515.53 512.28 522.24 504.39 528.88 494.43 535.4 483.56 542.68 471.49 549.86 458.86 556.76 452.47 560.41 446.04 563.95 439.6 567.34 433.16 570.79 426.74 574.05 420.37 577.04 414 580.03 407.82 582.64 401.83 584.85 395.82 586.97 389.97 588.64 384.26 589.86 372.68 591.84 361.37 591.84 350.12 589.92 338.26 587.22 326.05 582.64 313.4 576.41 300.13 569.52 286.61 561.18 273.35 551.69 260.6 541.8 249.27 530.99 240.27 519.53 233.42 507.92 229.72 495.82 229.25 483.48 230.25 471.12 232.93 458.58 236.15 446.06 237.06 439.81 237.67 433.56 237.87 427.34 237.28 421.12 236.2 414.92 234.67 408.76 232.45 402.61 230.05 396.64 227.62 390.85 225.01 385.07 222.75 379.46 221 374.05 218.7 363.19 219.92 353.05 224.76 343.67 232.15 334.19 242.28 325.38 254.05 317.28 266.08 308.99 278.1 301.29 289.52 294.21 299.55 286.82 308.75 279.93 317.37 273.58 324.79 266.81 332.29 260.5 340.25 254.72 347.72 248.51 356.15 242.83 365.7 237.84 372.95 234.02 389.04 227.35 397.93 224.61" stroke-dasharray="7 10" transform="rotate(40.400000000000006, 400, 400)" opacity="0.43"></path><path d="M408.07 235.62C419.67 232.28 432.06 230.24 445.03 229.49 457.99 228.97 471.36 229.84 484.66 232.03 497.46 234.58 509.42 238.47 519.69 243.56 528.3 249.01 534.12 255.61 536.51 263.18 536.83 271.04 534.11 279.78 529.25 289.19 525.17 298.8 522.03 308.99 521.69 319.57 526.38 330.25 535.6 341.25 548.72 352.38 564.48 363.54 579.58 374.79 590.66 385.94 596.07 397.09 593.5 407.59 583.97 417.38 570.1 427.15 553.68 436.23 537.51 444.57 523.92 452.95 513.71 460.68 507.08 467.74 504.36 474.99 503.73 481.73 503.81 487.99 504.9 494.63 504.62 500.98 502.33 507.08 499.22 513.74 493.74 520.3 486.2 526.7 477.89 533.72 468.07 540.59 457.22 547.12 446.16 554.09 434.49 560.5 422.49 566.03 410.49 571.53 398.72 575.54 387.19 577.95 375.5 579.89 363.77 580.03 351.9 578.45 339.64 576.22 327.03 572.28 314.19 566.81 301.16 560.77 288.26 553.36 276.07 544.85 264.79 535.98 255.22 526.18 248.09 515.73 242.98 505.11 240.7 493.98 241.18 482.55 242.63 471.09 245.32 459.41 248.23 447.69 249.12 435.98 248.5 424.25 246.15 412.64 241.34 401.03 236.43 390.07 232.63 379.81 229.86 369.51 230.17 359.85 233.79 350.88 239.79 341.81 248.6 333.35 259.33 325.52 270.79 317.5 282.74 310.02 294.51 303.11 305.39 295.91 315.63 289.18 325.27 282.95 333.84 276.36 342.24 270.2 350.77 264.57 358.74 258.57 367.33 253.1 376.78 248.29 386.06 243.23 396.45 238.94 408.06 235.62" stroke-dasharray="4 6" transform="rotate(44.44, 400, 400)" opacity="0.47"></path><path d="M416.53 246.63C427.58 243.45 439.07 241.47 450.77 240.68 462.37 240.07 473.92 240.75 484.91 242.63 495.28 244.82 504.4 248.23 511.58 252.75 517.34 257.58 520.53 263.47 520.9 270.28 520.06 277.33 517.21 285.22 513.3 293.76 510.87 302.47 509.92 311.76 511.78 321.44 518.03 331.21 527.97 341.31 540.81 351.56 555.46 361.85 569.16 372.25 579.18 382.61 584.33 392.96 582.58 402.76 574.65 411.94 562.69 421.12 547.89 429.7 532.57 437.65 518.76 445.66 507.31 453.11 498.73 460 493.54 467.07 490.55 473.71 488.8 479.94 488.58 486.51 487.89 492.83 486 498.9 483.91 505.45 479.97 511.86 474.2 518.08 467.93 524.81 460.04 531.34 450.85 537.48 441.47 543.98 431.11 549.92 419.97 555.02 408.83 560.09 397.49 563.79 386.04 566.05 374.52 567.92 362.74 568.19 350.74 566.9 338.59 565.07 326.2 561.7 313.82 556.93 301.65 551.68 289.95 545.16 279.3 537.58 269.8 529.68 262.14 520.88 256.87 511.42 253.35 501.79 252.29 491.63 253.49 481.13 255.21 470.58 257.77 459.78 260.3 448.89 260.86 437.99 260.01 427.03 257.64 416.14 253.01 405.25 248.26 394.93 244.4 385.22 241.27 375.48 240.78 366.31 243.23 357.75 247.84 349.09 255.2 340.97 264.63 333.42 275.11 325.7 286.51 318.46 298.14 311.73 309.38 304.75 320.27 298.2 330.68 292.13 340.26 285.75 349.56 279.78 358.77 274.33 367.44 268.56 376.44 263.31 385.97 258.7 395.32 253.89 405.47 249.8 416.53 246.63" stroke-dasharray="10 3" transform="rotate(48.48, 400, 400)" opacity="0.51"></path><path d="M421.57 257.65C431.95 254.62 442.35 252.72 452.53 251.9 462.58 251.24 472.12 251.74 480.73 253.34 492.02 256.67 504.22 268.99 504.26 277.67 503.17 283.96 500.95 291.02 498.5 298.71 497.92 306.55 499.06 314.95 502.82 323.74 510.25 332.62 520.55 341.83 532.88 351.23 546.36 360.65 558.7 370.22 567.69 379.79 572.57 389.36 571.52 398.48 565.07 407.06 554.95 415.66 541.88 423.75 527.74 431.32 514.24 438.94 502.18 446.11 492.24 452.81 484.99 459.67 479.8 466.17 476.07 472.32 474.06 478.77 472.24 484.99 469.91 490.96 467.88 497.33 464.59 503.55 459.86 509.53 454.89 515.93 448.43 522.09 440.61 527.83 432.65 533.86 423.51 539.33 413.32 544 403.13 548.65 392.46 552.05 381.45 554.15 370.45 555.94 359.1 556.3 347.55 555.26 336.06 553.79 324.51 550.93 313.22 546.8 302.42 542.27 292.36 536.56 283.58 529.87 275.99 522.9 270.24 515.06 266.71 506.56 264.57 497.91 264.47 488.71 266.14 479.15 267.94 469.52 270.24 459.61 272.35 449.55 272.56 439.49 271.51 429.32 269.12 419.17 264.7 409.01 260.15 399.34 256.31 390.2 252.92 381.03 251.77 372.35 253.15 364.2 256.4 355.97 262.25 348.22 270.2 340.96 279.39 333.55 289.8 326.58 300.8 320.07 311.85 313.34 322.86 307 333.6 301.12 343.84 294.97 353.79 289.23 363.52 283.98 372.84 278.47 382.24 273.46 391.84 269.08 401.29 264.52 411.19 260.65 421.57 257.65" stroke-dasharray="6 6" transform="rotate(52.52, 400, 400)" opacity="0.54"></path><path d="M422.17 268.66C431.76 265.81 440.96 263.98 449.58 263.16 458.05 262.45 465.69 262.79 472.18 264.14 480.46 266.97 488.09 277.72 487.57 285.38 486.95 290.93 485.9 297.21 485.19 304.08 486.47 311.08 489.47 318.61 494.75 326.54 502.94 334.54 513.27 342.88 524.91 351.43 537.17 360.01 548.18 368.76 556.21 377.57 560.79 386.37 560.34 394.81 555.21 402.82 546.84 410.83 535.56 418.45 522.85 425.62 510.12 432.85 498.04 439.71 487.36 446.18 478.65 452.8 471.65 459.12 466.07 465.13 462.15 471.4 458.81 477.45 455.49 483.25 452.78 489.39 449.37 495.35 444.96 501.05 440.57 507.08 434.96 512.84 428.12 518.17 421.21 523.72 413.12 528.73 403.92 532.99 394.72 537.23 384.92 540.33 374.73 542.27 364.6 543.96 354.14 544.37 343.6 543.56 333.27 542.39 323.07 539.98 313.37 536.43 304.28 532.55 296.12 527.6 289.33 521.74 283.63 515.63 279.65 508.71 277.6 501.15 276.56 493.45 277.14 485.19 279.04 476.55 280.75 467.85 282.71 458.83 284.35 449.62 284.23 440.41 282.99 431.04 280.6 421.63 276.42 412.22 272.11 403.21 268.36 394.65 264.83 386.06 263.14 377.89 263.59 370.18 265.59 362.4 269.95 355.03 276.33 348.09 284 341.03 293.06 334.35 302.99 328.09 313.3 321.64 323.88 315.56 334.42 309.91 344.78 304.03 354.95 298.55 364.87 293.53 374.54 288.31 384.11 283.57 393.62 279.42 403.04 275.13 412.57 271.5 422.17 268.66" stroke-dasharray="4 6" transform="rotate(56.56, 400, 400)" opacity="0.58"></path><path d="M418.18 279.67C426.9 277.01 434.91 275.27 442.09 274.45 452.18 273.82 466.26 277.41 469.74 281.52 471.7 286.7 472.3 301.04 473.6 309.89 476.56 316.08 481.09 322.78 487.45 329.88 496.03 337.03 506.09 344.52 516.87 352.25 527.89 360 537.62 367.95 544.73 376.01 548.99 384.06 549.02 391.83 545.09 399.25 538.34 406.69 528.84 413.81 517.72 420.58 506.14 427.4 494.57 433.92 483.77 440.12 474.24 446.45 465.98 452.53 458.94 458.34 453.29 464.36 448.39 470.18 443.85 475.76 440.04 481.61 435.98 487.26 431.37 492.63 426.94 498.26 421.66 503.59 415.43 508.5 409.19 513.57 401.94 518.12 393.72 521.98 385.49 525.81 376.73 528.62 367.65 530.39 358.65 531.96 349.47 532.42 340.35 531.78 331.52 530.87 323.01 528.86 315.17 525.83 307.94 522.54 301.73 518.28 296.85 513.19 292.86 507.9 290.38 501.84 289.5 495.17 289.25 488.37 290.22 481.04 292.11 473.3 293.59 465.51 295.13 457.37 296.28 449.02 295.84 440.66 294.44 432.1 292.09 423.45 288.17 414.81 284.13 406.47 280.53 398.51 276.97 390.53 274.89 382.89 274.58 375.64 275.48 368.34 278.44 361.37 283.26 354.79 289.29 348.11 296.79 341.76 305.3 335.79 314.41 329.67 324.04 323.88 333.86 318.49 343.75 312.93 353.6 307.73 363.25 302.98 372.82 298.07 382.21 293.62 391.37 289.73 400.5 285.72 409.47 282.33 418.18 279.67" stroke-dasharray="1 1" transform="rotate(60.599999999999994, 400, 400)" opacity="0.62"></path><path d="M410.45 290.69C418.23 288.21 425.16 286.58 431.17 285.77 445.22 286.54 456.21 295.95 457.57 301.77 459.16 305.98 461.1 310.81 463.82 316.16 468.16 321.58 473.8 327.49 480.81 333.78 489.42 340.12 498.95 346.8 508.75 353.73 518.51 360.68 527.01 367.85 533.25 375.16 537.17 382.47 537.59 389.57 534.69 396.41 529.42 403.27 521.65 409.88 512.2 416.21 502.02 422.59 491.42 428.74 481.05 434.63 471.38 440.62 462.5 446.4 454.53 451.94 447.61 457.65 441.41 463.18 435.72 468.46 430.72 473.96 425.79 479.25 420.69 484.25 415.85 489.45 410.53 494.34 404.61 498.81 398.72 503.41 392.12 507.51 384.8 510.96 377.49 514.4 369.83 516.92 362.04 518.52 354.33 519.98 346.63 520.44 339.16 519.95 331.98 519.25 325.27 517.59 319.32 515.03 311.67 510.45 303 497.08 302.26 488.63 302.47 482.7 303.56 476.24 305.26 469.39 306.39 462.48 307.45 455.23 308.13 447.72 307.39 440.2 305.86 432.46 303.57 424.59 299.93 416.71 296.2 409.07 292.81 401.73 289.32 394.38 287 387.3 286.11 380.54 286.09 373.74 287.83 367.22 291.19 361.04 295.6 354.77 301.43 348.79 308.34 343.16 315.91 337.4 324.18 331.95 332.82 326.87 341.72 321.65 350.73 316.78 359.65 312.33 368.62 307.76 377.42 303.61 385.92 300 394.44 296.29 402.66 293.15 410.45 290.69" stroke-dasharray="3 4" transform="rotate(64.64, 400, 400)" opacity="0.66"></path><path d="M400.55 301.7C410.4 298.67 425.79 296.41 431.28 297.15 435.99 298.73 442.65 305.47 445.68 310.46 448.5 314.08 451.81 318.24 455.84 322.89 461.15 327.6 467.46 332.75 474.7 338.28 482.99 343.83 491.77 349.73 500.5 355.89 509.02 362.05 516.36 368.46 521.77 375.04 525.34 381.61 526.05 388.05 524.03 394.3 520.08 400.55 513.93 406.64 506.17 412.5 497.56 418.41 488.25 424.14 478.78 429.65 469.55 435.25 460.69 440.68 452.41 445.89 444.81 451.23 437.78 456.4 431.27 461.33 425.32 466.43 419.6 471.31 413.98 475.9 408.63 480.64 403.11 485.08 397.34 489.11 391.62 493.23 385.52 496.88 379.03 499.95 372.54 503 365.98 505.24 359.49 506.67 349.98 508.22 332.95 506.87 326.19 504.05 320.84 500.21 315.6 488.83 315.68 481.54 316.06 476.42 317.04 470.81 318.38 464.81 319.09 458.76 319.66 452.36 319.88 445.69 318.88 439.01 317.26 432.08 315.05 424.99 311.72 417.9 308.33 410.98 305.2 404.29 301.88 397.59 299.47 391.09 298.17 384.86 297.46 378.6 298.17 372.57 300.26 366.82 303.18 361.01 307.39 355.45 312.64 350.2 318.53 344.85 325.2 339.78 332.37 335.05 339.87 330.21 347.63 325.7 355.43 321.58 363.36 317.37 371.2 313.55 378.78 310.23 386.4 306.84 393.71 303.97 400.55 301.7" stroke-dasharray="5 5" transform="rotate(68.68, 400, 400)" opacity="0.70"></path><path d="M390.54 312.71C402.42 308.61 411.57 307.24 418.17 308.34 425.15 309.68 430.8 313.53 436.43 319.47 444.85 325.66 455.65 333.79 468.95 343.36 484.72 353.01 499.9 363.94 510.28 375.65 515.07 387.35 510.73 398.75 499.5 409.44 484.92 420.27 468.13 430.63 451.92 440.16 437.09 450.08 423.68 459.39 411.6 467.59 400.37 476.19 389.08 483.58 377.58 488.93 366.08 494.26 355.42 496.62 346.52 496.17 338.19 495.28 332.5 491.5 330.13 485.3 328.34 478.71 329.09 469.93 331.35 459.58 331.11 449.09 329.67 437.26 326.54 424.67 319.76 412.06 313.92 399.89 310.71 388.59 308.88 377.19 311.75 366.5 318.65 356.91 327.65 347.06 339.38 338.17 352.09 330.73 365.42 323.02 378.66 316.8 390.54 312.71" stroke-dasharray="6 10" transform="rotate(72.72, 400, 400)" opacity="0.73"></path><path d="M382.48 323.73C392.67 320.06 401.12 318.78 408.02 319.63 415.43 320.64 422.43 323.81 429.87 328.8 439.43 333.95 450.75 340.83 463.41 349.02 477.32 357.26 490.13 366.71 498.8 376.98 503.25 387.24 500.52 397.37 492.1 406.98 480.7 416.7 466.65 426.06 452.26 434.71 438.27 443.64 425.06 451.99 413.12 459.28 401.74 466.86 390.9 473.3 380.76 477.92 370.61 482.52 362.02 484.57 355.43 484.24 347.15 482.06 342.65 466.22 344.07 453.72 343.04 444.8 341.09 434.62 338.02 423.61 332.05 412.6 326.88 401.83 323.7 391.73 321.15 381.57 322.22 371.96 326.63 363.3 332.57 354.46 341.12 346.47 351.01 339.79 361.45 332.92 372.3 327.37 382.48 323.73" stroke-dasharray="4 11" transform="rotate(76.76, 400, 400)" opacity="0.77"></path><path d="M378.04 334.74C386.67 331.54 394.57 330.36 401.8 331 409.5 331.74 417.38 334.3 425.81 338.42 435.61 342.63 446.55 348.34 457.93 355.22 469.74 362.14 480.25 370.16 487.31 378.98 491.34 387.81 489.88 396.63 483.92 405.08 475.53 413.6 464.49 421.86 452.57 429.51 440.43 437.34 428.47 444.65 417.47 450.99 406.75 457.5 396.76 463 387.91 466.91 375.56 471.67 360.57 470.61 358.04 465.14 356.56 460.72 356.22 454.65 356.43 447.3 354.73 439.87 352.44 431.27 349.51 421.86 344.36 412.44 339.95 403.13 337.03 394.31 334.24 385.45 334.13 377.02 336.65 369.38 340.12 361.63 345.9 354.62 353.18 348.75 360.88 342.76 369.4 337.93 378.04 334.74" stroke-dasharray="9 0" transform="rotate(80.80000000000001, 400, 400)" opacity="0.81"></path><path d="M378.13 345.76C385.32 343.04 392.58 342 399.79 342.46 407.32 342.98 415.33 345 423.77 348.31 432.95 351.68 442.72 356.3 452.35 361.94 461.94 367.59 470.24 374.23 475.83 381.61 479.35 388.99 478.83 396.45 474.91 403.65 469.21 410.9 461.16 417.96 452 424.51 442.36 431.16 432.45 437.35 423.09 442.69 413.78 448.13 405.1 452.69 397.55 455.89 380.85 459.43 369.6 448.77 368.32 440.36 366.16 434.33 363.69 427.28 360.99 419.46 356.7 411.65 353.09 403.82 350.63 396.36 347.99 388.87 347.28 381.7 348.56 375.18 350.29 368.59 353.93 362.62 359.07 357.62 364.44 352.55 370.93 348.46 378.13 345.76" stroke-dasharray="4 10" transform="rotate(84.84, 400, 400)" opacity="0.85"></path><path d="M382.73 356.77C394.38 352.35 408.41 353.32 423.1 358.45 438.92 363.67 454.86 372.9 464.35 384.78 468.72 396.65 462.16 409.03 449.84 419.66 435.65 430.53 420.07 439.84 407.7 444.88 395.32 449.89 388.04 449.25 385.02 444.1 380.06 438.67 376.02 428.94 372.47 416.49 364.79 404.04 360.79 391.32 361.98 380.71 363.65 369.97 371.08 361.16 382.73 356.77" stroke-dasharray="10 10" transform="rotate(88.88, 400, 400)" opacity="0.89"></path><path d="M390.9 367.78C399.81 364.41 411.28 365.05 423 368.81 434.91 372.6 446.28 379.44 452.86 388.4 456.62 397.35 453.23 406.79 445.56 414.91 436.58 423.15 425.72 430.14 416.26 433.87 406.79 437.58 400.32 437.13 396.54 433.35 391.48 429.45 387.16 422.33 383.96 413.04 378.33 403.74 375.56 394.11 376.37 386 377.03 377.85 381.98 371.15 390.9 367.78" stroke-dasharray="1 1" transform="rotate(92.92, 400, 400)" opacity="0.92"></path><path d="M400.94 378.8C413.12 374.22 432.34 380.33 441.38 392.36 445.54 404.37 434.23 417.97 421.46 422.85 408.68 427.71 399.19 421.51 395.44 409.2 387.31 396.87 388.75 383.35 400.94 378.8" stroke-dasharray="5 6" transform="rotate(96.96, 400, 400)" opacity="0.96"></path></g></svg>