<svg xmlns="http://www.w3.org/2000/svg" version="1.1" xmlns:xlink="http://www.w3.org/1999/xlink" xmlns:svgjs="http://svgjs.dev/svgjs" viewBox="0 0 1422 800"><circle r="12" cx="235" cy="142" stroke-width="2" stroke="hsl(117, 50%, 50%)" fill="none" opacity="0.26"></circle><circle r="12.5" cx="320" cy="265" stroke-width="2" stroke="hsl(120, 50%, 50%)" fill="none" opacity="0.57"></circle><circle r="9.5" cx="292" cy="564" stroke-width="2" stroke="hsl(115, 50%, 50%)" fill="none" opacity="0.86"></circle><circle r="14" cx="623" cy="98" stroke-width="2" stroke="hsl(144, 50%, 50%)" fill="none" opacity="0.32"></circle><circle r="7.5" cx="252" cy="638" stroke-width="2" stroke="hsl(106, 50%, 50%)" fill="none" opacity="0.53"></circle><circle r="13" cx="886" cy="731" fill="hsl(99, 50%, 50%)" opacity="0.24"></circle><circle r="12" cx="372" cy="703" stroke-width="2" stroke="hsl(130, 50%, 50%)" fill="none" opacity="0.47"></circle><circle r="11" cx="820" cy="773" fill="hsl(121, 50%, 50%)" opacity="0.39"></circle><circle r="11" cx="812" cy="333" fill="hsl(121, 50%, 50%)" opacity="0.73"></circle><circle r="10" cx="108" cy="613" stroke-width="2" stroke="hsl(78, 50%, 50%)" fill="none" opacity="0.42"></circle><circle r="12" cx="599" cy="227" fill="hsl(160, 50%, 50%)" opacity="0.15"></circle><circle r="9.5" cx="1178" cy="563" stroke-width="2" stroke="hsl(90, 50%, 50%)" fill="none" opacity="0.48"></circle><circle r="9" cx="303" cy="99" fill="hsl(147, 50%, 50%)" opacity="0.41"></circle><circle r="12.5" cx="561" cy="394" stroke-width="2" stroke="hsl(160, 50%, 50%)" fill="none" opacity="0.36"></circle><circle r="9.5" cx="575" cy="302" stroke-width="2" stroke="hsl(160, 50%, 50%)" fill="none" opacity="0.85"></circle><circle r="12.5" cx="207" cy="765" stroke-width="2" stroke="hsl(97, 50%, 50%)" fill="none" opacity="0.89"></circle><circle r="7" cx="1313" cy="642" fill="hsl(157, 50%, 50%)" opacity="0.55"></circle><circle r="12.5" cx="465" cy="612" fill="hsl(149, 50%, 50%)" opacity="0.53"></circle><circle r="11" cx="682" cy="465" fill="hsl(152, 50%, 50%)" opacity="0.12"></circle><circle r="8" cx="144" cy="82" stroke-width="2" stroke="hsl(136, 50%, 50%)" fill="none" opacity="0.13"></circle><circle r="18.5" cx="1284" cy="151" fill="hsl(136, 50%, 50%)" opacity="0.16"></circle><circle r="9" cx="199" cy="272" stroke-width="2" stroke="hsl(93, 50%, 50%)" fill="none" opacity="0.68"></circle><circle r="9" cx="1034" cy="505" stroke-width="2" stroke="hsl(61, 50%, 50%)" fill="none" opacity="0.66"></circle><circle r="10.5" cx="30" cy="232" fill="hsl(72, 50%, 50%)" opacity="0.25"></circle><circle r="8.5" cx="125" cy="462" fill="hsl(81, 50%, 50%)" opacity="0.12"></circle><circle r="9.5" cx="1267" cy="593" fill="hsl(132, 50%, 50%)" opacity="0.89"></circle><circle r="15.5" cx="607" cy="639" stroke-width="2" stroke="hsl(159, 50%, 50%)" fill="none" opacity="0.76"></circle><circle r="11.5" cx="1355" cy="657" fill="hsl(183, 50%, 50%)" opacity="0.99"></circle><circle r="9.5" cx="32" cy="676" fill="hsl(72, 50%, 50%)" opacity="0.45"></circle><circle r="12" cx="401" cy="24" stroke-width="2" stroke="hsl(190, 50%, 50%)" fill="none" opacity="0.54"></circle><circle r="8.5" cx="1079" cy="28" fill="hsl(39, 50%, 50%)" opacity="0.91"></circle><circle r="13" cx="582" cy="175" stroke-width="2" stroke="hsl(158, 50%, 50%)" fill="none" opacity="0.21"></circle><circle r="13" cx="472" cy="211" stroke-width="2" stroke="hsl(153, 50%, 50%)" fill="none" opacity="0.85"></circle><circle r="11" cx="1187" cy="708" stroke-width="2" stroke="hsl(90, 50%, 50%)" fill="none" opacity="0.61"></circle><circle r="14" cx="275" cy="763" stroke-width="2" stroke="hsl(110, 50%, 50%)" fill="none" opacity="0.57"></circle><circle r="13" cx="401" cy="654" fill="hsl(140, 50%, 50%)" opacity="0.48"></circle><circle r="10" cx="913" cy="199" stroke-width="2" stroke="hsl(84, 50%, 50%)" fill="none" opacity="0.29"></circle><circle r="13.5" cx="1297" cy="296" stroke-width="2" stroke="hsl(144, 50%, 50%)" fill="none" opacity="0.47"></circle><circle r="10.5" cx="367" cy="428" fill="hsl(130, 50%, 50%)" opacity="0.59"></circle><circle r="11" cx="316" cy="694" fill="hsl(120, 50%, 50%)" opacity="0.72"></circle><circle r="9.5" cx="540" cy="678" stroke-width="2" stroke="hsl(160, 50%, 50%)" fill="none" opacity="0.53"></circle><circle r="12.5" cx="627" cy="728" stroke-width="2" stroke="hsl(157, 50%, 50%)" fill="none" opacity="0.53"></circle><circle r="11" cx="697" cy="598" stroke-width="2" stroke="hsl(148, 50%, 50%)" fill="none" opacity="0.53"></circle><circle r="10.5" cx="1240" cy="431" stroke-width="2" stroke="hsl(110, 50%, 50%)" fill="none" opacity="0.72"></circle><circle r="7.5" cx="1006" cy="280" fill="hsl(63, 50%, 50%)" opacity="0.61"></circle><circle r="11.5" cx="328" cy="469" fill="hsl(120, 50%, 50%)" opacity="0.99"></circle><circle r="8.5" cx="814" cy="286" fill="hsl(121, 50%, 50%)" opacity="0.75"></circle><circle r="9" cx="401" cy="212" stroke-width="2" stroke="hsl(140, 50%, 50%)" fill="none" opacity="0.31"></circle><circle r="14" cx="239" cy="28" stroke-width="2" stroke="hsl(169, 50%, 50%)" fill="none" opacity="0.42"></circle><circle r="8.5" cx="257" cy="593" fill="hsl(106, 50%, 50%)" opacity="0.35"></circle><circle r="11" cx="24" cy="748" stroke-width="2" stroke="hsl(72, 50%, 50%)" fill="none" opacity="0.81"></circle><circle r="8.5" cx="796" cy="54" fill="hsl(68, 50%, 50%)" opacity="0.63"></circle><circle r="14.5" cx="751" cy="302" fill="hsl(139, 50%, 50%)" opacity="0.13"></circle><circle r="14" cx="619" cy="339" stroke-width="2" stroke="hsl(159, 50%, 50%)" fill="none" opacity="0.90"></circle><circle r="13.5" cx="1298" cy="417" stroke-width="2" stroke="hsl(144, 50%, 50%)" fill="none" opacity="0.39"></circle><circle r="8" cx="97" cy="264" fill="hsl(78, 50%, 50%)" opacity="0.75"></circle><circle r="11" cx="731" cy="165" fill="hsl(132, 50%, 50%)" opacity="0.44"></circle><circle r="6" cx="201" cy="232" stroke-width="2" stroke="hsl(97, 50%, 50%)" fill="none" opacity="0.31"></circle><circle r="9.5" cx="1132" cy="163" fill="hsl(68, 50%, 50%)" opacity="0.27"></circle><circle r="10" cx="575" cy="493" fill="hsl(160, 50%, 50%)" opacity="0.22"></circle><circle r="13.5" cx="230" cy="700" fill="hsl(101, 50%, 50%)" opacity="0.48"></circle><circle r="9" cx="529" cy="565" stroke-width="2" stroke="hsl(158, 50%, 50%)" fill="none" opacity="0.92"></circle><circle r="11.5" cx="377" cy="137" fill="hsl(143, 50%, 50%)" opacity="0.50"></circle><circle r="8.5" cx="215" cy="574" stroke-width="2" stroke="hsl(97, 50%, 50%)" fill="none" opacity="0.15"></circle><circle r="8.5" cx="1116" cy="623" fill="hsl(69, 50%, 50%)" opacity="0.83"></circle><circle r="10.5" cx="906" cy="399" stroke-width="2" stroke="hsl(91, 50%, 50%)" fill="none" opacity="0.16"></circle><circle r="9" cx="531" cy="104" stroke-width="2" stroke="hsl(169, 50%, 50%)" fill="none" opacity="0.62"></circle><circle r="6.5" cx="856" cy="270" fill="hsl(107, 50%, 50%)" opacity="0.46"></circle><circle r="10.5" cx="802" cy="457" stroke-width="2" stroke="hsl(121, 50%, 50%)" fill="none" opacity="0.43"></circle><circle r="13.5" cx="320" cy="327" fill="hsl(120, 50%, 50%)" opacity="0.78"></circle><circle r="11.5" cx="187" cy="349" fill="hsl(93, 50%, 50%)" opacity="0.73"></circle><circle r="9.5" cx="423" cy="166" fill="hsl(150, 50%, 50%)" opacity="0.60"></circle><circle r="10" cx="1051" cy="204" fill="hsl(61, 50%, 50%)" opacity="0.56"></circle><circle r="10" cx="204" cy="634" stroke-width="2" stroke="hsl(97, 50%, 50%)" fill="none" opacity="0.98"></circle><circle r="7" cx="797" cy="653" fill="hsl(128, 50%, 50%)" opacity="0.98"></circle><circle r="12" cx="18" cy="66" fill="hsl(145, 50%, 50%)" opacity="0.25"></circle><circle r="9" cx="733" cy="360" stroke-width="2" stroke="hsl(144, 50%, 50%)" fill="none" opacity="0.91"></circle><circle r="9.5" cx="491" cy="755" stroke-width="2" stroke="hsl(156, 50%, 50%)" fill="none" opacity="0.71"></circle><circle r="10.5" cx="513" cy="163" stroke-width="2" stroke="hsl(160, 50%, 50%)" fill="none" opacity="0.58"></circle><circle r="8" cx="21" cy="493" fill="hsl(72, 50%, 50%)" opacity="0.79"></circle><circle r="12" cx="577" cy="702" fill="hsl(160, 50%, 50%)" opacity="0.46"></circle><circle r="8.5" cx="1145" cy="676" stroke-width="2" stroke="hsl(75, 50%, 50%)" fill="none" opacity="0.43"></circle><circle r="7" cx="223" cy="530" stroke-width="2" stroke="hsl(101, 50%, 50%)" fill="none" opacity="0.71"></circle><circle r="11.5" cx="54" cy="534" fill="hsl(73, 50%, 50%)" opacity="0.55"></circle><circle r="12" cx="705" cy="233" stroke-width="2" stroke="hsl(148, 50%, 50%)" fill="none" opacity="0.98"></circle><circle r="7" cx="826" cy="183" stroke-width="2" stroke="hsl(114, 50%, 50%)" fill="none" opacity="0.86"></circle><circle r="14" cx="1242" cy="261" fill="hsl(110, 50%, 50%)" opacity="0.30"></circle><circle r="12" cx="421" cy="407" fill="hsl(140, 50%, 50%)" opacity="0.99"></circle><circle r="10.5" cx="299" cy="516" stroke-width="2" stroke="hsl(115, 50%, 50%)" fill="none" opacity="0.28"></circle><circle r="9" cx="897" cy="147" stroke-width="2" stroke="hsl(65, 50%, 50%)" fill="none" opacity="0.54"></circle><circle r="12" cx="543" cy="342" stroke-width="2" stroke="hsl(160, 50%, 50%)" fill="none" opacity="0.91"></circle><circle r="12" cx="1076" cy="560" fill="hsl(62, 50%, 50%)" opacity="0.78"></circle><circle r="10" cx="155" cy="295" stroke-width="2" stroke="hsl(85, 50%, 50%)" fill="none" opacity="0.61"></circle><circle r="11" cx="1228" cy="557" stroke-width="2" stroke="hsl(110, 50%, 50%)" fill="none" opacity="0.14"></circle><circle r="8" cx="125" cy="411" fill="hsl(81, 50%, 50%)" opacity="0.32"></circle><circle r="8.5" cx="571" cy="264" stroke-width="2" stroke="hsl(160, 50%, 50%)" fill="none" opacity="0.72"></circle><circle r="7.5" cx="371" cy="180" fill="hsl(130, 50%, 50%)" opacity="0.68"></circle><circle r="12" cx="1315" cy="363" fill="hsl(157, 50%, 50%)" opacity="0.48"></circle><circle r="11.5" cx="31" cy="166" stroke-width="2" stroke="hsl(79, 50%, 50%)" fill="none" opacity="0.74"></circle><circle r="9.5" cx="328" cy="171" stroke-width="2" stroke="hsl(127, 50%, 50%)" fill="none" opacity="0.33"></circle><circle r="6.5" cx="1292" cy="662" stroke-width="2" stroke="hsl(144, 50%, 50%)" fill="none" opacity="0.61"></circle><circle r="6.5" cx="428" cy="745" fill="hsl(145, 50%, 50%)" opacity="0.33"></circle><circle r="8.5" cx="751" cy="725" fill="hsl(139, 50%, 50%)" opacity="0.57"></circle><circle r="11.5" cx="743" cy="774" fill="hsl(139, 50%, 50%)" opacity="0.10"></circle><circle r="7" cx="1149" cy="594" fill="hsl(75, 50%, 50%)" opacity="0.16"></circle><circle r="10" cx="290" cy="155" fill="hsl(130, 50%, 50%)" opacity="0.97"></circle><circle r="9.5" cx="349" cy="217" fill="hsl(125, 50%, 50%)" opacity="0.96"></circle><circle r="6" cx="173" cy="548" stroke-width="2" stroke="hsl(89, 50%, 50%)" fill="none" opacity="0.44"></circle><circle r="10.5" cx="987" cy="541" fill="hsl(67, 50%, 50%)" opacity="0.34"></circle><circle r="6" cx="90" cy="304" fill="hsl(78, 50%, 50%)" opacity="0.12"></circle><circle r="16.5" cx="1203" cy="156" fill="hsl(102, 50%, 50%)" opacity="0.21"></circle><circle r="7.5" cx="1044" cy="659" fill="hsl(61, 50%, 50%)" opacity="0.35"></circle><circle r="9.5" cx="110" cy="557" fill="hsl(78, 50%, 50%)" opacity="0.40"></circle><circle r="9.5" cx="1091" cy="670" fill="hsl(65, 50%, 50%)" opacity="0.80"></circle><circle r="9" cx="56" cy="627" fill="hsl(73, 50%, 50%)" opacity="0.24"></circle><circle r="13.5" cx="1359" cy="339" stroke-width="2" stroke="hsl(183, 50%, 50%)" fill="none" opacity="0.69"></circle><circle r="10.5" cx="781" cy="243" stroke-width="2" stroke="hsl(128, 50%, 50%)" fill="none" opacity="0.13"></circle><circle r="13" cx="978" cy="162" fill="hsl(58, 50%, 50%)" opacity="0.29"></circle><circle r="11.5" cx="607" cy="775" stroke-width="2" stroke="hsl(159, 50%, 50%)" fill="none" opacity="0.61"></circle><circle r="9.5" cx="697" cy="702" stroke-width="2" stroke="hsl(148, 50%, 50%)" fill="none" opacity="0.92"></circle><circle r="8.5" cx="1127" cy="729" fill="hsl(69, 50%, 50%)" opacity="0.74"></circle><circle r="10.5" cx="389" cy="303" fill="hsl(135, 50%, 50%)" opacity="0.83"></circle><circle r="8.5" cx="987" cy="668" stroke-width="2" stroke="hsl(67, 50%, 50%)" fill="none" opacity="0.50"></circle><circle r="11.5" cx="509" cy="260" stroke-width="2" stroke="hsl(156, 50%, 50%)" fill="none" opacity="0.83"></circle><circle r="8.5" cx="936" cy="776" fill="hsl(77, 50%, 50%)" opacity="0.19"></circle><circle r="10" cx="569" cy="111" stroke-width="2" stroke="hsl(162, 50%, 50%)" fill="none" opacity="0.27"></circle><circle r="10.5" cx="148" cy="770" fill="hsl(85, 50%, 50%)" opacity="0.36"></circle><circle r="14.5" cx="432" cy="513" fill="hsl(145, 50%, 50%)" opacity="0.97"></circle><circle r="12" cx="1119" cy="505" fill="hsl(69, 50%, 50%)" opacity="0.56"></circle><circle r="13.5" cx="256" cy="355" fill="hsl(106, 50%, 50%)" opacity="0.78"></circle><circle r="9" cx="782" cy="174" stroke-width="2" stroke="hsl(113, 50%, 50%)" fill="none" opacity="0.33"></circle><circle r="17.5" cx="479" cy="33" fill="hsl(192, 50%, 50%)" opacity="0.15"></circle><circle r="9" cx="27" cy="290" fill="hsl(72, 50%, 50%)" opacity="0.59"></circle><circle r="7" cx="110" cy="373" stroke-width="2" stroke="hsl(78, 50%, 50%)" fill="none" opacity="0.97"></circle><circle r="9.5" cx="826" cy="720" stroke-width="2" stroke="hsl(114, 50%, 50%)" fill="none" opacity="0.75"></circle><circle r="10.5" cx="1183" cy="497" stroke-width="2" stroke="hsl(90, 50%, 50%)" fill="none" opacity="0.98"></circle><circle r="11" cx="228" cy="203" fill="hsl(101, 50%, 50%)" opacity="0.29"></circle><circle r="13" cx="833" cy="388" stroke-width="2" stroke="hsl(114, 50%, 50%)" fill="none" opacity="0.43"></circle><circle r="15" cx="495" cy="384" stroke-width="2" stroke="hsl(156, 50%, 50%)" fill="none" opacity="0.94"></circle><circle r="9.5" cx="819" cy="580" stroke-width="2" stroke="hsl(121, 50%, 50%)" fill="none" opacity="0.54"></circle><circle r="13.5" cx="338" cy="766" stroke-width="2" stroke="hsl(125, 50%, 50%)" fill="none" opacity="0.71"></circle><circle r="12.5" cx="428" cy="351" fill="hsl(145, 50%, 50%)" opacity="0.50"></circle><circle r="6.5" cx="923" cy="288" stroke-width="2" stroke="hsl(84, 50%, 50%)" fill="none" opacity="0.13"></circle><circle r="12.5" cx="1399" cy="493" fill="hsl(196, 50%, 50%)" opacity="0.23"></circle><circle r="13.5" cx="356" cy="542" fill="hsl(130, 50%, 50%)" opacity="0.41"></circle><circle r="8.5" cx="958" cy="619" stroke-width="2" stroke="hsl(71, 50%, 50%)" fill="none" opacity="0.15"></circle><circle r="9" cx="769" cy="372" fill="hsl(133, 50%, 50%)" opacity="0.79"></circle><circle r="12" cx="1295" cy="533" stroke-width="2" stroke="hsl(144, 50%, 50%)" fill="none" opacity="0.73"></circle><circle r="8" cx="395" cy="757" stroke-width="2" stroke="hsl(135, 50%, 50%)" fill="none" opacity="0.43"></circle><circle r="8" cx="852" cy="665" stroke-width="2" stroke="hsl(107, 50%, 50%)" fill="none" opacity="0.41"></circle><circle r="9.5" cx="647" cy="416" fill="hsl(155, 50%, 50%)" opacity="0.65"></circle><circle r="9.5" cx="114" cy="183" fill="hsl(81, 50%, 50%)" opacity="0.25"></circle><circle r="10.5" cx="1115" cy="424" fill="hsl(69, 50%, 50%)" opacity="0.94"></circle><circle r="6.5" cx="947" cy="264" stroke-width="2" stroke="hsl(77, 50%, 50%)" fill="none" opacity="0.94"></circle><circle r="12.5" cx="366" cy="370" fill="hsl(130, 50%, 50%)" opacity="0.84"></circle><circle r="11" cx="605" cy="414" fill="hsl(159, 50%, 50%)" opacity="0.81"></circle><circle r="8" cx="694" cy="741" fill="hsl(148, 50%, 50%)" opacity="0.86"></circle><circle r="5.5" cx="1102" cy="325" fill="hsl(65, 50%, 50%)" opacity="0.56"></circle><circle r="14.5" cx="1392" cy="32" fill="hsl(158, 50%, 50%)" opacity="0.15"></circle><circle r="10" cx="675" cy="778" fill="hsl(152, 50%, 50%)" opacity="0.57"></circle><circle r="10" cx="447" cy="712" stroke-width="2" stroke="hsl(149, 50%, 50%)" fill="none" opacity="0.76"></circle><circle r="12.5" cx="1316" cy="586" fill="hsl(157, 50%, 50%)" opacity="0.23"></circle><circle r="12" cx="1399" cy="125" fill="hsl(186, 50%, 50%)" opacity="0.11"></circle><circle r="11" cx="252" cy="91" fill="hsl(139, 50%, 50%)" opacity="0.48"></circle><circle r="6.5" cx="841" cy="48" fill="hsl(48, 50%, 50%)" opacity="0.92"></circle><circle r="7.5" cx="1251" cy="629" fill="hsl(121, 50%, 50%)" opacity="0.95"></circle><circle r="6" cx="101" cy="338" fill="hsl(78, 50%, 50%)" opacity="0.24"></circle><circle r="7" cx="959" cy="227" stroke-width="2" stroke="hsl(71, 50%, 50%)" fill="none" opacity="0.47"></circle><circle r="10.5" cx="741" cy="478" fill="hsl(139, 50%, 50%)" opacity="0.10"></circle><circle r="9" cx="190" cy="454" fill="hsl(93, 50%, 50%)" opacity="0.11"></circle><circle r="10" cx="610" cy="462" stroke-width="2" stroke="hsl(159, 50%, 50%)" fill="none" opacity="0.49"></circle><circle r="9" cx="158" cy="220" stroke-width="2" stroke="hsl(89, 50%, 50%)" fill="none" opacity="0.49"></circle><circle r="6" cx="484" cy="787" stroke-width="2" stroke="hsl(153, 50%, 50%)" fill="none" opacity="0.30"></circle><circle r="8" cx="286" cy="661" fill="hsl(110, 50%, 50%)" opacity="0.90"></circle><circle r="10" cx="748" cy="211" stroke-width="2" stroke="hsl(139, 50%, 50%)" fill="none" opacity="0.90"></circle><circle r="7.5" cx="1171" cy="429" stroke-width="2" stroke="hsl(82, 50%, 50%)" fill="none" opacity="0.29"></circle><circle r="15" cx="297" cy="33" fill="hsl(176, 50%, 50%)" opacity="0.85"></circle><circle r="10.5" cx="356" cy="41" stroke-width="2" stroke="hsl(185, 50%, 50%)" fill="none" opacity="0.78"></circle><circle r="9" cx="25" cy="593" stroke-width="2" stroke="hsl(72, 50%, 50%)" fill="none" opacity="0.36"></circle><circle r="6.5" cx="927" cy="595" fill="hsl(84, 50%, 50%)" opacity="0.55"></circle><circle r="13" cx="489" cy="312" stroke-width="2" stroke="hsl(153, 50%, 50%)" fill="none" opacity="0.53"></circle><circle r="7.5" cx="162" cy="490" fill="hsl(89, 50%, 50%)" opacity="0.72"></circle><circle r="12.5" cx="819" cy="510" fill="hsl(121, 50%, 50%)" opacity="0.76"></circle><circle r="8.5" cx="1399" cy="309" fill="hsl(196, 50%, 50%)" opacity="0.66"></circle><circle r="8.5" cx="962" cy="351" stroke-width="2" stroke="hsl(71, 50%, 50%)" fill="none" opacity="0.52"></circle><circle r="7.5" cx="36" cy="338" stroke-width="2" stroke="hsl(72, 50%, 50%)" fill="none" opacity="0.20"></circle><circle r="11.5" cx="1249" cy="721" fill="hsl(121, 50%, 50%)" opacity="0.87"></circle><circle r="9" cx="83" cy="137" stroke-width="2" stroke="hsl(92, 50%, 50%)" fill="none" opacity="0.49"></circle><circle r="11" cx="717" cy="410" stroke-width="2" stroke="hsl(144, 50%, 50%)" fill="none" opacity="0.93"></circle><circle r="9.5" cx="175" cy="112" fill="hsl(114, 50%, 50%)" opacity="0.44"></circle><circle r="9" cx="787" cy="410" fill="hsl(128, 50%, 50%)" opacity="0.18"></circle><circle r="7" cx="1026" cy="454" fill="hsl(61, 50%, 50%)" opacity="0.90"></circle><circle r="17" cx="419" cy="90" fill="hsl(165, 50%, 50%)" opacity="0.61"></circle><circle r="14.5" cx="466" cy="445" fill="hsl(149, 50%, 50%)" opacity="0.66"></circle><circle r="11.5" cx="282" cy="220" stroke-width="2" stroke="hsl(110, 50%, 50%)" fill="none" opacity="0.91"></circle><circle r="10" cx="751" cy="523" fill="hsl(139, 50%, 50%)" opacity="0.22"></circle><circle r="5" cx="1014" cy="632" stroke-width="2" stroke="hsl(63, 50%, 50%)" fill="none" opacity="0.34"></circle><circle r="7.5" cx="84" cy="217" fill="hsl(75, 50%, 50%)" opacity="0.86"></circle><circle r="10.5" cx="763" cy="105" fill="hsl(89, 50%, 50%)" opacity="0.15"></circle><circle r="12.5" cx="982" cy="54" stroke-width="2" stroke="hsl(21, 50%, 50%)" fill="none" opacity="0.15"></circle><circle r="7" cx="808" cy="138" fill="hsl(93, 50%, 50%)" opacity="0.13"></circle><circle r="11" cx="946" cy="702" stroke-width="2" stroke="hsl(77, 50%, 50%)" fill="none" opacity="0.35"></circle><circle r="10" cx="777" cy="698" stroke-width="2" stroke="hsl(133, 50%, 50%)" fill="none" opacity="0.45"></circle><circle r="13.5" cx="1237" cy="33" stroke-width="2" stroke="hsl(114, 50%, 50%)" fill="none" opacity="0.15"></circle><circle r="5.5" cx="856" cy="304" fill="hsl(107, 50%, 50%)" opacity="0.80"></circle><circle r="8" cx="49" cy="394" fill="hsl(73, 50%, 50%)" opacity="0.68"></circle><circle r="10" cx="210" cy="409" fill="hsl(97, 50%, 50%)" opacity="0.84"></circle><circle r="8.5" cx="854" cy="204" stroke-width="2" stroke="hsl(107, 50%, 50%)" fill="none" opacity="0.12"></circle><circle r="9.5" cx="748" cy="662" stroke-width="2" stroke="hsl(139, 50%, 50%)" fill="none" opacity="0.49"></circle><circle r="10" cx="1175" cy="367" fill="hsl(82, 50%, 50%)" opacity="0.10"></circle><circle r="5.5" cx="1000" cy="320" stroke-width="2" stroke="hsl(63, 50%, 50%)" fill="none" opacity="0.45"></circle><circle r="5.5" cx="15" cy="375" fill="hsl(72, 50%, 50%)" opacity="0.14"></circle><circle r="16" cx="1338" cy="470" fill="hsl(170, 50%, 50%)" opacity="0.45"></circle><circle r="3.5" cx="1119" cy="347" fill="hsl(69, 50%, 50%)" opacity="0.71"></circle><circle r="9" cx="90" cy="673" fill="hsl(78, 50%, 50%)" opacity="0.91"></circle><circle r="10" cx="1048" cy="718" fill="hsl(61, 50%, 50%)" opacity="0.27"></circle><circle r="11" cx="1226" cy="772" stroke-width="2" stroke="hsl(110, 50%, 50%)" fill="none" opacity="0.34"></circle><circle r="17" cx="1390" cy="733" stroke-width="2" stroke="hsl(196, 50%, 50%)" fill="none" opacity="0.17"></circle><circle r="8" cx="81" cy="778" fill="hsl(75, 50%, 50%)" opacity="0.49"></circle><circle r="7" cx="949" cy="416" stroke-width="2" stroke="hsl(77, 50%, 50%)" fill="none" opacity="0.47"></circle><circle r="11.5" cx="755" cy="573" stroke-width="2" stroke="hsl(139, 50%, 50%)" fill="none" opacity="0.76"></circle><circle r="12" cx="510" cy="483" stroke-width="2" stroke="hsl(156, 50%, 50%)" fill="none" opacity="0.95"></circle><circle r="8.5" cx="77" cy="464" fill="hsl(75, 50%, 50%)" opacity="0.57"></circle><circle r="10.5" cx="1067" cy="289" fill="hsl(62, 50%, 50%)" opacity="0.38"></circle><circle r="13.5" cx="715" cy="34" stroke-width="2" stroke="hsl(103, 50%, 50%)" fill="none" opacity="0.87"></circle><circle r="8.5" cx="267" cy="463" fill="hsl(110, 50%, 50%)" opacity="0.55"></circle><circle r="13.5" cx="1338" cy="108" stroke-width="2" stroke="hsl(165, 50%, 50%)" fill="none" opacity="0.56"></circle><circle r="10.5" cx="50" cy="22" fill="hsl(163, 50%, 50%)" opacity="0.60"></circle><circle r="12" cx="499" cy="648" stroke-width="2" stroke="hsl(156, 50%, 50%)" fill="none" opacity="0.92"></circle><circle r="9" cx="788" cy="616" fill="hsl(128, 50%, 50%)" opacity="0.97"></circle><circle r="10" cx="1314" cy="234" stroke-width="2" stroke="hsl(157, 50%, 50%)" fill="none" opacity="0.19"></circle><circle r="8.5" cx="859" cy="549" stroke-width="2" stroke="hsl(107, 50%, 50%)" fill="none" opacity="0.25"></circle><circle r="7.5" cx="868" cy="338" stroke-width="2" stroke="hsl(99, 50%, 50%)" fill="none" opacity="0.19"></circle><circle r="13" cx="693" cy="537" stroke-width="2" stroke="hsl(148, 50%, 50%)" fill="none" opacity="0.71"></circle><circle r="9" cx="153" cy="715" fill="hsl(85, 50%, 50%)" opacity="0.39"></circle><circle r="9.5" cx="923" cy="93" fill="hsl(38, 50%, 50%)" opacity="0.54"></circle><circle r="8" cx="29" cy="436" fill="hsl(72, 50%, 50%)" opacity="0.74"></circle><circle r="13.5" cx="253" cy="284" fill="hsl(106, 50%, 50%)" opacity="0.69"></circle><circle r="14.5" cx="1346" cy="192" fill="hsl(170, 50%, 50%)" opacity="0.63"></circle><circle r="14" cx="647" cy="167" stroke-width="2" stroke="hsl(148, 50%, 50%)" fill="none" opacity="0.72"></circle><circle r="9.5" cx="273" cy="419" stroke-width="2" stroke="hsl(110, 50%, 50%)" fill="none" opacity="0.97"></circle><circle r="13" cx="1301" cy="763" fill="hsl(144, 50%, 50%)" opacity="0.31"></circle><circle r="15.5" cx="1237" cy="351" fill="hsl(110, 50%, 50%)" opacity="0.91"></circle><circle r="6.5" cx="434" cy="786" stroke-width="2" stroke="hsl(145, 50%, 50%)" fill="none" opacity="0.28"></circle><circle r="9.5" cx="547" cy="521" stroke-width="2" stroke="hsl(160, 50%, 50%)" fill="none" opacity="0.34"></circle><circle r="9.5" cx="590" cy="555" stroke-width="2" stroke="hsl(160, 50%, 50%)" fill="none" opacity="0.21"></circle><circle r="9.5" cx="87" cy="725" stroke-width="2" stroke="hsl(75, 50%, 50%)" fill="none" opacity="0.40"></circle><circle r="11" cx="1120" cy="239" fill="hsl(69, 50%, 50%)" opacity="0.52"></circle><circle r="8.5" cx="36" cy="112" fill="hsl(100, 50%, 50%)" opacity="0.48"></circle><circle r="6" cx="1005" cy="358" stroke-width="2" stroke="hsl(63, 50%, 50%)" fill="none" opacity="0.12"></circle><circle r="5.5" cx="385" cy="788" fill="hsl(135, 50%, 50%)" opacity="0.72"></circle><circle r="15" cx="659" cy="268" stroke-width="2" stroke="hsl(155, 50%, 50%)" fill="none" opacity="0.53"></circle><circle r="14" cx="546" cy="767" stroke-width="2" stroke="hsl(160, 50%, 50%)" fill="none" opacity="0.91"></circle><circle r="11" cx="436" cy="243" stroke-width="2" stroke="hsl(145, 50%, 50%)" fill="none" opacity="0.88"></circle><circle r="8.5" cx="757" cy="436" stroke-width="2" stroke="hsl(133, 50%, 50%)" fill="none" opacity="0.81"></circle><circle r="9" cx="247" cy="502" stroke-width="2" stroke="hsl(106, 50%, 50%)" fill="none" opacity="0.21"></circle><circle r="5" cx="1137" cy="359" stroke-width="2" stroke="hsl(75, 50%, 50%)" fill="none" opacity="0.51"></circle><circle r="11.5" cx="463" cy="153" stroke-width="2" stroke="hsl(158, 50%, 50%)" fill="none" opacity="0.14"></circle><circle r="9" cx="928" cy="544" fill="hsl(84, 50%, 50%)" opacity="0.33"></circle><circle r="12.5" cx="645" cy="589" stroke-width="2" stroke="hsl(155, 50%, 50%)" fill="none" opacity="0.40"></circle><circle r="8" cx="1005" cy="233" fill="hsl(63, 50%, 50%)" opacity="0.79"></circle><circle r="8.5" cx="892" cy="31" stroke-width="2" stroke="hsl(23, 50%, 50%)" fill="none" opacity="0.51"></circle><circle r="7" cx="817" cy="679" stroke-width="2" stroke="hsl(121, 50%, 50%)" fill="none" opacity="0.23"></circle><circle r="9.5" cx="913" cy="343" stroke-width="2" stroke="hsl(84, 50%, 50%)" fill="none" opacity="0.22"></circle><circle r="12.5" cx="485" cy="101" stroke-width="2" stroke="hsl(171, 50%, 50%)" fill="none" opacity="0.37"></circle><circle r="11" cx="389" cy="476" stroke-width="2" stroke="hsl(135, 50%, 50%)" fill="none" opacity="0.73"></circle><circle r="7" cx="132" cy="520" stroke-width="2" stroke="hsl(81, 50%, 50%)" fill="none" opacity="0.86"></circle><circle r="9.5" cx="1197" cy="635" stroke-width="2" stroke="hsl(90, 50%, 50%)" fill="none" opacity="0.37"></circle><circle r="15.5" cx="1328" cy="45" fill="hsl(150, 50%, 50%)" opacity="0.51"></circle><circle r="12" cx="189" cy="46" stroke-width="2" stroke="hsl(153, 50%, 50%)" fill="none" opacity="0.14"></circle><circle r="8" cx="1026" cy="594" stroke-width="2" stroke="hsl(61, 50%, 50%)" fill="none" opacity="0.90"></circle><circle r="8.5" cx="973" cy="479" fill="hsl(71, 50%, 50%)" opacity="0.51"></circle><circle r="7.5" cx="723" cy="635" stroke-width="2" stroke="hsl(144, 50%, 50%)" fill="none" opacity="0.43"></circle><circle r="7.5" cx="110" cy="108" stroke-width="2" stroke="hsl(118, 50%, 50%)" fill="none" opacity="0.79"></circle><circle r="13.5" cx="556" cy="604" stroke-width="2" stroke="hsl(160, 50%, 50%)" fill="none" opacity="0.55"></circle><circle r="10" cx="1075" cy="93" stroke-width="2" stroke="hsl(48, 50%, 50%)" fill="none" opacity="0.23"></circle><circle r="7" cx="685" cy="421" stroke-width="2" stroke="hsl(152, 50%, 50%)" fill="none" opacity="0.94"></circle><circle r="13" cx="326" cy="615" fill="hsl(120, 50%, 50%)" opacity="0.38"></circle><circle r="11" cx="885" cy="635" fill="hsl(99, 50%, 50%)" opacity="0.79"></circle><circle r="8.5" cx="826" cy="244" stroke-width="2" stroke="hsl(114, 50%, 50%)" fill="none" opacity="0.25"></circle><circle r="7.5" cx="1408" cy="345" fill="hsl(209, 50%, 50%)" opacity="0.48"></circle><circle r="9.5" cx="69" cy="75" fill="hsl(131, 50%, 50%)" opacity="0.78"></circle><circle r="15" cx="1394" cy="616" fill="hsl(196, 50%, 50%)" opacity="0.81"></circle><circle r="9" cx="377" cy="260" fill="hsl(130, 50%, 50%)" opacity="0.44"></circle><circle r="8" cx="881" cy="238" fill="hsl(99, 50%, 50%)" opacity="0.63"></circle><circle r="10.5" cx="1349" cy="280" stroke-width="2" stroke="hsl(170, 50%, 50%)" fill="none" opacity="0.55"></circle><circle r="10" cx="662" cy="374" fill="hsl(155, 50%, 50%)" opacity="0.52"></circle><circle r="17.5" cx="1388" cy="400" fill="hsl(196, 50%, 50%)" opacity="0.55"></circle><circle r="12" cx="913" cy="489" stroke-width="2" stroke="hsl(84, 50%, 50%)" fill="none" opacity="0.71"></circle><circle r="11.5" cx="1180" cy="263" fill="hsl(90, 50%, 50%)" opacity="0.24"></circle><circle r="11" cx="315" cy="397" fill="hsl(120, 50%, 50%)" opacity="0.32"></circle><circle r="12.5" cx="1255" cy="497" stroke-width="2" stroke="hsl(121, 50%, 50%)" fill="none" opacity="0.30"></circle><circle r="12" cx="531" cy="208" stroke-width="2" stroke="hsl(158, 50%, 50%)" fill="none" opacity="0.98"></circle><circle r="12.5" cx="1398" cy="211" stroke-width="2" stroke="hsl(196, 50%, 50%)" fill="none" opacity="0.11"></circle><circle r="13.5" cx="487" cy="539" stroke-width="2" stroke="hsl(153, 50%, 50%)" fill="none" opacity="1.00"></circle><circle r="10" cx="444" cy="294" stroke-width="2" stroke="hsl(145, 50%, 50%)" fill="none" opacity="0.40"></circle><circle r="10.5" cx="1356" cy="779" stroke-width="2" stroke="hsl(183, 50%, 50%)" fill="none" opacity="0.74"></circle><circle r="16.5" cx="586" cy="34" fill="hsl(170, 50%, 50%)" opacity="0.16"></circle><circle r="5.5" cx="888" cy="282" fill="hsl(99, 50%, 50%)" opacity="0.29"></circle><circle r="9.5" cx="167" cy="160" stroke-width="2" stroke="hsl(96, 50%, 50%)" fill="none" opacity="0.84"></circle><circle r="11.5" cx="125" cy="24" stroke-width="2" stroke="hsl(164, 50%, 50%)" fill="none" opacity="0.96"></circle><circle r="7" cx="624" cy="506" fill="hsl(157, 50%, 50%)" opacity="0.60"></circle><circle r="10" cx="680" cy="647" stroke-width="2" stroke="hsl(152, 50%, 50%)" fill="none" opacity="0.41"></circle><circle r="10.5" cx="151" cy="661" stroke-width="2" stroke="hsl(85, 50%, 50%)" fill="none" opacity="0.44"></circle><circle r="11.5" cx="1394" cy="271" stroke-width="2" stroke="hsl(196, 50%, 50%)" fill="none" opacity="0.18"></circle><circle r="9.5" cx="1303" cy="701" stroke-width="2" stroke="hsl(144, 50%, 50%)" fill="none" opacity="0.53"></circle><circle r="13" cx="1181" cy="72" stroke-width="2" stroke="hsl(94, 50%, 50%)" fill="none" opacity="0.35"></circle><circle r="11" cx="494" cy="705" fill="hsl(156, 50%, 50%)" opacity="0.23"></circle><circle r="9" cx="1232" cy="669" fill="hsl(110, 50%, 50%)" opacity="0.92"></circle><circle r="16" cx="692" cy="114" stroke-width="2" stroke="hsl(122, 50%, 50%)" fill="none" opacity="0.67"></circle><circle r="7" cx="982" cy="435" fill="hsl(67, 50%, 50%)" opacity="0.22"></circle><circle r="13" cx="863" cy="451" fill="hsl(107, 50%, 50%)" opacity="0.53"></circle><circle r="7.5" cx="890" cy="575" stroke-width="2" stroke="hsl(91, 50%, 50%)" fill="none" opacity="0.19"></circle><circle r="10.5" cx="165" cy="593" fill="hsl(89, 50%, 50%)" opacity="0.66"></circle><circle r="7" cx="1203" cy="455" stroke-width="2" stroke="hsl(99, 50%, 50%)" fill="none" opacity="0.89"></circle><circle r="8.5" cx="848" cy="121" fill="hsl(66, 50%, 50%)" opacity="0.65"></circle><circle r="7.5" cx="656" cy="492" stroke-width="2" stroke="hsl(155, 50%, 50%)" fill="none" opacity="0.53"></circle><circle r="5" cx="185" cy="516" fill="hsl(93, 50%, 50%)" opacity="0.17"></circle><circle r="7.5" cx="1014" cy="399" fill="hsl(63, 50%, 50%)" opacity="0.13"></circle><circle r="11.5" cx="651" cy="679" stroke-width="2" stroke="hsl(155, 50%, 50%)" fill="none" opacity="0.46"></circle><circle r="8" cx="1066" cy="150" fill="hsl(51, 50%, 50%)" opacity="0.79"></circle><circle r="9" cx="630" cy="542" fill="hsl(157, 50%, 50%)" opacity="0.37"></circle><circle r="10.5" cx="1007" cy="760" stroke-width="2" stroke="hsl(63, 50%, 50%)" fill="none" opacity="0.54"></circle><circle r="6.5" cx="113" cy="63" fill="hsl(149, 50%, 50%)" opacity="0.72"></circle><circle r="9.5" cx="1086" cy="771" fill="hsl(62, 50%, 50%)" opacity="0.34"></circle><circle r="14.5" cx="1360" cy="547" stroke-width="2" stroke="hsl(183, 50%, 50%)" fill="none" opacity="0.50"></circle><circle r="8" cx="1070" cy="447" fill="hsl(62, 50%, 50%)" opacity="0.11"></circle><circle r="13.5" cx="690" cy="332" stroke-width="2" stroke="hsl(148, 50%, 50%)" fill="none" opacity="0.46"></circle><circle r="9.5" cx="1162" cy="774" stroke-width="2" stroke="hsl(82, 50%, 50%)" fill="none" opacity="0.41"></circle><circle r="8.5" cx="1054" cy="367" fill="hsl(61, 50%, 50%)" opacity="0.73"></circle><circle r="11.5" cx="345" cy="92" fill="hsl(155, 50%, 50%)" opacity="0.14"></circle><circle r="15.5" cx="405" cy="584" fill="hsl(140, 50%, 50%)" opacity="0.33"></circle><circle r="11.5" cx="544" cy="446" fill="hsl(160, 50%, 50%)" opacity="0.12"></circle></svg>