<svg xmlns="http://www.w3.org/2000/svg" version="1.1" xmlns:xlink="http://www.w3.org/1999/xlink" xmlns:svgjs="http://svgjs.dev/svgjs" viewBox="0 0 1422 800"><g fill="none" stroke-width="3" stroke="hsl(70, 69%, 50%)" stroke-linecap="round"><line x1="760" y1="400" x2="662" y2="400" transform="rotate(0, 711, 400)" opacity="0.12"></line><line x1="919.5" y1="400" x2="502.5" y2="400" transform="rotate(4, 711, 400)" opacity="0.32"></line><line x1="740" y1="400" x2="682" y2="400" transform="rotate(8, 711, 400)" opacity="0.98"></line><line x1="1347" y1="400" x2="75" y2="400" transform="rotate(12, 711, 400)" opacity="0.42"></line><line x1="957.5" y1="400" x2="464.5" y2="400" transform="rotate(16, 711, 400)" opacity="0.66"></line><line x1="918.5" y1="400" x2="503.5" y2="400" transform="rotate(20, 711, 400)" opacity="0.62"></line><line x1="1311.5" y1="400" x2="110.5" y2="400" transform="rotate(24, 711, 400)" opacity="0.18"></line><line x1="1307.5" y1="400" x2="114.5" y2="400" transform="rotate(28, 711, 400)" opacity="0.64"></line><line x1="1110.5" y1="400" x2="311.5" y2="400" transform="rotate(32, 711, 400)" opacity="0.48"></line><line x1="1279" y1="400" x2="143" y2="400" transform="rotate(36, 711, 400)" opacity="0.98"></line><line x1="659.5" y1="400" x2="762.5" y2="400" transform="rotate(40, 711, 400)" opacity="0.09"></line><line x1="791.5" y1="400" x2="630.5" y2="400" transform="rotate(44, 711, 400)" opacity="0.99"></line><line x1="920" y1="400" x2="502" y2="400" transform="rotate(48, 711, 400)" opacity="0.90"></line><line x1="1000.5" y1="400" x2="421.5" y2="400" transform="rotate(52, 711, 400)" opacity="0.36"></line><line x1="1026" y1="400" x2="396" y2="400" transform="rotate(56, 711, 400)" opacity="0.89"></line><line x1="825" y1="400" x2="597" y2="400" transform="rotate(60, 711, 400)" opacity="0.76"></line><line x1="907" y1="400" x2="515" y2="400" transform="rotate(64, 711, 400)" opacity="0.58"></line><line x1="838" y1="400" x2="584" y2="400" transform="rotate(68, 711, 400)" opacity="0.49"></line><line x1="859" y1="400" x2="563" y2="400" transform="rotate(72, 711, 400)" opacity="0.09"></line><line x1="1237.5" y1="400" x2="184.5" y2="400" transform="rotate(76, 711, 400)" opacity="0.72"></line><line x1="918.5" y1="400" x2="503.5" y2="400" transform="rotate(80, 711, 400)" opacity="0.32"></line><line x1="840.5" y1="400" x2="581.5" y2="400" transform="rotate(84, 711, 400)" opacity="0.33"></line><line x1="1162.5" y1="400" x2="259.5" y2="400" transform="rotate(88, 711, 400)" opacity="0.67"></line><line x1="1120" y1="400" x2="302" y2="400" transform="rotate(92, 711, 400)" opacity="0.96"></line><line x1="1106.5" y1="400" x2="315.5" y2="400" transform="rotate(96, 711, 400)" opacity="0.31"></line><line x1="651.5" y1="400" x2="770.5" y2="400" transform="rotate(100, 711, 400)" opacity="0.35"></line><line x1="1228" y1="400" x2="194" y2="400" transform="rotate(104, 711, 400)" opacity="0.50"></line><line x1="1204" y1="400" x2="218" y2="400" transform="rotate(108, 711, 400)" opacity="0.84"></line><line x1="1216.5" y1="400" x2="205.5" y2="400" transform="rotate(112, 711, 400)" opacity="0.42"></line><line x1="771" y1="400" x2="651" y2="400" transform="rotate(116, 711, 400)" opacity="0.13"></line><line x1="954.5" y1="400" x2="467.5" y2="400" transform="rotate(120, 711, 400)" opacity="0.12"></line><line x1="1109.5" y1="400" x2="312.5" y2="400" transform="rotate(124, 711, 400)" opacity="0.38"></line><line x1="748.5" y1="400" x2="673.5" y2="400" transform="rotate(128, 711, 400)" opacity="0.45"></line><line x1="1288" y1="400" x2="134" y2="400" transform="rotate(132, 711, 400)" opacity="0.39"></line><line x1="747" y1="400" x2="675" y2="400" transform="rotate(136, 711, 400)" opacity="0.37"></line><line x1="1117" y1="400" x2="305" y2="400" transform="rotate(140, 711, 400)" opacity="0.09"></line><line x1="1029" y1="400" x2="393" y2="400" transform="rotate(144, 711, 400)" opacity="0.34"></line><line x1="823" y1="400" x2="599" y2="400" transform="rotate(148, 711, 400)" opacity="0.64"></line><line x1="752.5" y1="400" x2="669.5" y2="400" transform="rotate(152, 711, 400)" opacity="0.86"></line><line x1="977.5" y1="400" x2="444.5" y2="400" transform="rotate(156, 711, 400)" opacity="0.96"></line><line x1="834" y1="400" x2="588" y2="400" transform="rotate(160, 711, 400)" opacity="0.55"></line><line x1="1076" y1="400" x2="346" y2="400" transform="rotate(164, 711, 400)" opacity="0.87"></line><line x1="894" y1="400" x2="528" y2="400" transform="rotate(168, 711, 400)" opacity="0.36"></line><line x1="1212" y1="400" x2="210" y2="400" transform="rotate(172, 711, 400)" opacity="0.23"></line><line x1="993" y1="400" x2="429" y2="400" transform="rotate(176, 711, 400)" opacity="0.78"></line><line x1="1074.5" y1="400" x2="347.5" y2="400" transform="rotate(180, 711, 400)" opacity="0.43"></line><line x1="1115.5" y1="400" x2="306.5" y2="400" transform="rotate(184, 711, 400)" opacity="0.52"></line><line x1="944" y1="400" x2="478" y2="400" transform="rotate(188, 711, 400)" opacity="0.84"></line><line x1="719" y1="400" x2="703" y2="400" transform="rotate(192, 711, 400)" opacity="0.10"></line><line x1="671" y1="400" x2="751" y2="400" transform="rotate(196, 711, 400)" opacity="0.73"></line><line x1="731.5" y1="400" x2="690.5" y2="400" transform="rotate(200, 711, 400)" opacity="0.95"></line><line x1="1169.5" y1="400" x2="252.5" y2="400" transform="rotate(204, 711, 400)" opacity="0.38"></line><line x1="1202" y1="400" x2="220" y2="400" transform="rotate(208, 711, 400)" opacity="0.22"></line><line x1="647" y1="400" x2="775" y2="400" transform="rotate(212, 711, 400)" opacity="0.55"></line><line x1="1020" y1="400" x2="402" y2="400" transform="rotate(216, 711, 400)" opacity="0.70"></line><line x1="1011.5" y1="400" x2="410.5" y2="400" transform="rotate(220, 711, 400)" opacity="0.48"></line><line x1="993" y1="400" x2="429" y2="400" transform="rotate(224, 711, 400)" opacity="0.56"></line><line x1="1047.5" y1="400" x2="374.5" y2="400" transform="rotate(228, 711, 400)" opacity="0.60"></line><line x1="1235.5" y1="400" x2="186.5" y2="400" transform="rotate(232, 711, 400)" opacity="0.88"></line><line x1="815" y1="400" x2="607" y2="400" transform="rotate(236, 711, 400)" opacity="0.32"></line><line x1="963.5" y1="400" x2="458.5" y2="400" transform="rotate(240, 711, 400)" opacity="0.97"></line><line x1="1359.5" y1="400" x2="62.5" y2="400" transform="rotate(244, 711, 400)" opacity="0.44"></line><line x1="959.5" y1="400" x2="462.5" y2="400" transform="rotate(248, 711, 400)" opacity="0.76"></line><line x1="1145" y1="400" x2="277" y2="400" transform="rotate(252, 711, 400)" opacity="0.27"></line><line x1="1146" y1="400" x2="276" y2="400" transform="rotate(256, 711, 400)" opacity="0.30"></line><line x1="1084.5" y1="400" x2="337.5" y2="400" transform="rotate(260, 711, 400)" opacity="0.59"></line><line x1="1237" y1="400" x2="185" y2="400" transform="rotate(264, 711, 400)" opacity="0.31"></line><line x1="1307.5" y1="400" x2="114.5" y2="400" transform="rotate(268, 711, 400)" opacity="0.96"></line><line x1="1290.5" y1="400" x2="131.5" y2="400" transform="rotate(272, 711, 400)" opacity="0.23"></line><line x1="943.5" y1="400" x2="478.5" y2="400" transform="rotate(276, 711, 400)" opacity="0.16"></line><line x1="1208" y1="400" x2="214" y2="400" transform="rotate(280, 711, 400)" opacity="0.88"></line><line x1="819" y1="400" x2="603" y2="400" transform="rotate(284, 711, 400)" opacity="0.71"></line><line x1="1155.5" y1="400" x2="266.5" y2="400" transform="rotate(288, 711, 400)" opacity="0.99"></line><line x1="863" y1="400" x2="559" y2="400" transform="rotate(292, 711, 400)" opacity="0.81"></line><line x1="1198.5" y1="400" x2="223.5" y2="400" transform="rotate(296, 711, 400)" opacity="0.25"></line><line x1="1235.5" y1="400" x2="186.5" y2="400" transform="rotate(300, 711, 400)" opacity="0.81"></line><line x1="1296.5" y1="400" x2="125.5" y2="400" transform="rotate(304, 711, 400)" opacity="0.92"></line><line x1="956.5" y1="400" x2="465.5" y2="400" transform="rotate(308, 711, 400)" opacity="0.84"></line><line x1="808.5" y1="400" x2="613.5" y2="400" transform="rotate(312, 711, 400)" opacity="0.85"></line><line x1="1112" y1="400" x2="310" y2="400" transform="rotate(316, 711, 400)" opacity="0.72"></line><line x1="1213.5" y1="400" x2="208.5" y2="400" transform="rotate(320, 711, 400)" opacity="0.75"></line><line x1="870.5" y1="400" x2="551.5" y2="400" transform="rotate(324, 711, 400)" opacity="0.99"></line><line x1="1071" y1="400" x2="351" y2="400" transform="rotate(328, 711, 400)" opacity="0.20"></line><line x1="907" y1="400" x2="515" y2="400" transform="rotate(332, 711, 400)" opacity="0.94"></line><line x1="1183" y1="400" x2="239" y2="400" transform="rotate(336, 711, 400)" opacity="0.93"></line><line x1="1065.5" y1="400" x2="356.5" y2="400" transform="rotate(340, 711, 400)" opacity="0.81"></line><line x1="1223" y1="400" x2="199" y2="400" transform="rotate(344, 711, 400)" opacity="0.85"></line><line x1="962.5" y1="400" x2="459.5" y2="400" transform="rotate(348, 711, 400)" opacity="0.32"></line></g></svg>