<svg xmlns="http://www.w3.org/2000/svg" version="1.1" xmlns:xlink="http://www.w3.org/1999/xlink" xmlns:svgjs="http://svgjs.dev/svgjs" viewBox="0 0 800 800"><defs><linearGradient x1="50%" y1="0%" x2="50%" y2="100%" id="wwwhirl-grad"><stop stop-color="hsl(105, 69%, 40%)" stop-opacity="1" offset="45%"></stop><stop stop-color="hsl(105, 69%, 60%)" stop-opacity="1" offset="100%"></stop></linearGradient></defs><g stroke-width="2" stroke="url(#wwwhirl-grad)" fill="none" stroke-linecap="round"><path d="M37.00000251770027 406.90596229429553C50.75000289917 391.64346187086414 75.50000358581553 323.9522099928886 103.000004348755 333.64596026182477C130.50000511169446 343.33971053076095 141.5000054168703 447.8672134306939 169.00000617980973 453.43596358518914C196.5000069427492 459.0047137396844 207.50000724792503 363.05721107778857 235.00000801086446 360.3759610034019C262.500008773804 357.69471092901534 273.5000090789798 439.53471319952325 301.0000098419193 440.56596322813346C328.50001060485874 441.59721325674366 339.5000109100345 360.3759610034019 367.000011672974 365.32596114073107C394.50001243591345 370.27596127806015 405.5000127410893 465.1509639102013 433.0000135040287 464.32596388731315C460.5000142669682 463.500963864425 471.50001457214404 363.2222110823662 499.0000153350834 361.36596103086777C526.5000160980228 359.50971097936934 537.5000164031987 450.6722135085137 565.0000171661382 455.41596364012076C592.5000179290777 460.15971377172787 603.5000182342535 381.6609615939171 631.000018997193 384.1359616625816C658.5000197601325 386.6109617312462 669.5000200653083 467.9147139868768 697.0000208282477 467.29596396971067C724.5000215911871 466.6772139525445 749.2500222778326 399.1097120780022 763.0000226593024 381.1659615801842 " transform="rotate(99, 400, 400)"></path><path d="M48.00000244140632 406.6967112858658C61.33333614464971 391.8967108752656 85.3333368104878 326.25670905419844 112.00000421697456 335.65670931498505C138.6666716234613 345.0567095757716 149.33333858605602 446.41671238782783 176.00000599254278 451.81671253764137C202.66667339902952 457.21671268745496 213.33334036162427 364.17671010622263 240.000007768111 361.5767100340902C266.6666751745978 358.9767099619577 277.3333421371925 438.3367121636623 304.00000954367925 439.3367121914056C330.66667695016605 440.3367122191488 341.3333439127607 361.5767100340902 368.00001131924745 366.3767101672578C394.66667872573424 371.1767103004254 405.33334568832896 463.1767128528047 432.00001309481576 462.37671283061013C458.66668050130244 461.57671280841555 469.3333474638972 364.33671011066156 496.0000148703839 362.5367100607237C522.6666822768707 360.7367100107858 533.3333492394653 449.1367124632895 560.0000166459522 453.7367125909084C586.666684052439 458.3367127185274 597.3333510150337 382.21671060671093 624.0000184215204 384.61671067329473C650.6666858280073 387.01671073987853 661.3333527906019 465.85671292715665 688.0000201970887 465.2567129105107C714.6666876035754 464.6567128938648 738.6666882694134 399.13671107612674 752.0000219726569 381.73671059339415 " transform="rotate(96, 400, 400)"></path><path d="M59.00000236511238 406.4874183157661C71.9166693901294 392.1499179179972 95.16667003516005 328.56116615383837 121.00000408519412 337.66741640647535C146.83333813522813 346.7736666591124 157.1666717552418 444.9661693832918 183.0000058052758 450.1974195284237C208.83333985530987 455.4286696735556 219.1666734753235 365.29616717298677 245.00000752535757 362.77741710310846C270.8333415753916 360.25866703323015 281.1666751954052 437.13866916613154 307.0000092454393 438.1074191930078C332.83334329547336 439.07616921988404 343.16667691548696 362.77741710310846 369.00001096552097 367.4274172321146C394.83334501555504 372.07741736112075 405.1666786355687 461.2024198337382 431.0000126856027 460.4274198122372C456.8333467356368 459.6524197907362 467.16668035565044 365.451167177287 493.0000144056845 363.7074171289097C518.8333484557185 361.9636670805324 529.1666820757321 447.60116945639527 555.0000161257661 452.05741958002614C580.8333501758003 456.51366970365706 591.1666837958139 382.7724176578348 617.000017845848 385.0974177223379C642.8333518958821 387.422417786841 653.1666855158957 463.79866990576664 679.0000195659296 463.2174198896409C704.8333536159636 462.6361698735151 728.0833542609943 399.16366811258143 741.0000212860114 382.3074176449342 " transform="rotate(93, 400, 400)"></path><path d="M70.00000228881842 406.2781406044555C82.50000263560909 392.4031402195178 105.00000325983231 330.8656385122673 130.00000395341365 339.6781387567548C155.00000464699497 348.4906390012422 165.00000492442751 443.51564163754483 190.00000561800886 448.5781417779951C215.0000063115902 453.6406419184453 225.00000658902275 366.41563949854003 250.00000728260406 363.9781394309158C275.00000797618543 361.54063936329163 285.000008253618 435.9406414273897 310.0000089471993 436.87814145339905C335.00000964078066 437.8156414794083 345.00000991821315 363.9781394309158 370.0000106117945 368.4781395557605C395.00001130537584 372.9781396806051 405.0000115828084 459.22814207346073 430.0000122763897 458.4781420526533C455.000012969971 457.7281420318459 465.0000132474036 366.5656395027015 490.00001394098496 364.87813945588476C515.0000146345662 363.190639409068 525.0000149119987 446.0656417082902 550.0000156055801 450.37814182793295C575.0000162991615 454.6906419475757 585.000016576594 383.3281399677478 610.0000172701755 385.5781400301701C635.0000179637568 387.82814009259243 645.0000182411893 461.7406421431657 670.0000189347705 461.1781421275601C695.0000196283519 460.6156421119545 717.5000202525752 399.19064040782513 730.0000205993658 382.87813995526335 " transform="rotate(90, 400, 400)"></path><path d="M81.00000221252448 406.0688667078421C93.08333588108879 392.6563663357357 114.83333648450457 333.17011468539357 139.0000038216332 341.6888649217314C163.1666711587618 350.2076151580693 172.83333809361326 442.0651177064952 197.0000054307419 446.95886784226377C221.16667276787052 451.8526179780323 230.833339702722 367.5351156387905 255.00000703985063 365.17886557342047C279.16667437697924 362.82261550805043 288.83334131183074 434.74261750334523 313.00000864895935 435.64886752848753C337.16667598608797 436.5551175536299 346.8333429209394 365.17886557342047 371.000010258068 369.5288656941036C395.16667759519663 373.87886581478676 404.8333445300481 457.25386812788054 429.00001186717674 456.5288681077667C453.16667920430535 455.80386808765286 462.8333461391569 367.6801156428133 487.00001347628546 366.0488655975571C511.1666808134141 364.4176155523009 520.8333477482655 444.53011777488234 545.0000150853941 448.69886789053703C569.1666824225229 452.8676180061917 578.8333493573742 383.883866092358 603.000016694503 386.0588661526996C627.1666840316316 388.23386621304115 636.8333509664831 459.68261819526197 661.0000183036116 459.1388681801766C685.1666856407402 458.5951181650912 706.9166862441559 399.21761651776615 719.0000199127203 383.4488660802897 " transform="rotate(87, 400, 400)"></path><path d="M92.00000213623053 405.8596042553205C103.6666691265685 392.9096038960454 124.66666970917683 335.47460230261163 148.00000368985275 343.6996025307999C171.33333767052864 351.92460275898816 180.666671262799 440.61460521953734 204.00000524347493 445.3396053506242C227.33333922415085 450.06460548171106 236.66667281642125 368.65460322313277 260.00000679709717 366.37960316001687C283.33334077777306 364.104603096901 292.66667437004344 433.54460502339253 316.0000083507193 434.41960504766786C339.3333423313953 435.29460507194324 348.66667592366565 366.37960316001687 372.00000990434154 370.57960327653853C395.3333438850174 374.7796033930602 404.6666774772878 455.27960562639214 428.00001145796375 454.5796056069719C451.3333454386397 453.87960558755157 460.6666790309101 368.79460322701686 484.000013011586 367.2196031833212C507.33334699226185 365.6446031396256 516.6666805845323 442.99460528556625 540.0000145652082 447.01960539723285C563.3333485458841 451.0446055088995 572.6666821381544 384.43960366106006 596.0000161188304 386.5396037193209C619.3333500995063 388.6396037775817 628.6666836917767 457.62460569145003 652.0000176724526 457.09960567688483C675.3333516531285 456.57460566231964 696.3333522357368 399.2446040717989 708.0000192260748 384.0196036494079 " transform="rotate(84, 400, 400)"></path><path d="M103.00000205993659 405.6503456174962C114.25000237204819 393.16284527105233 134.5000029338491 337.77909373452695 157.00000355807228 345.7103439545656C179.50000418229547 353.6415941746043 188.5000044319848 439.1640965472767 211.00000505620795 443.7203466736819C233.50000568043117 448.2765968000871 242.50000593012047 369.77409462217236 265.0000065543437 367.5803445613106C287.5000071785669 365.38659450044884 296.5000074282562 432.3465963581371 319.0000080524794 433.19034638154545C341.5000086767026 434.0340964049538 350.50000892639184 367.5803445613106 373.00000955061506 371.6303446736708C395.5000101748383 375.68034478603096 404.5000104245276 453.305346939601 427.00001104875076 452.6303469208743C449.500011672974 451.95534690214765 458.5000119226633 369.9090946259177 481.00001254688647 368.3903445837826C503.50001317110963 366.87159454164754 512.5000134207988 441.4590966109475 535.0000140450221 445.340346718626C557.5000146692455 449.2215968263045 566.5000149189347 384.9953450444593 589.0000155431579 387.0203451006394C611.5000161673811 389.0453451568195 620.5000164170704 455.5665970023354 643.0000170412935 455.0603469882904C665.5000176655168 454.5540969742454 685.7500182273176 399.271595440529 697.0000185394292 384.59034503322334 " transform="rotate(81, 400, 400)"></path><path d="M114.00000198364263 405.44106027679106C124.83333561752788 393.4160599431784 144.33333615852135 340.08355846356136 166.0000034262918 347.7210586754505C187.6666706940623 355.3585588873396 196.3333376011705 437.71356117213526 218.000004868941 442.1010612938588C239.6666721367115 446.4885614155823 248.3333390438197 370.89355931833103 270.0000063115902 368.7810592597234C291.6666735793607 366.6685592011158 300.33334048646896 431.14856099000076 322.0000077542394 431.9610610125422C343.6666750220099 432.77356103508356 352.3333419291181 368.7810592597234 374.0000091968886 372.6810593679221C395.6666764646591 376.5810594761208 404.3333433717673 451.331061549929 426.0000106395378 450.68106153189586C447.66667790730827 450.03106151386277 456.3333448144165 371.0235593219377 478.00001208218697 369.56105928136316C499.66667934995746 368.09855924078863 508.33334625706556 439.9235612334478 530.0000135248362 443.6610613371382C551.6666807926067 447.39856144082864 560.3333476997147 385.5510597249778 582.0000149674854 387.50105977907714C603.6666822352558 389.4510598331765 612.3333491423641 453.50856161033994 634.0000164101345 453.0210615968151C655.666683677905 452.53356158329024 675.1666842188985 399.29856010637815 686.0000178527837 385.1610597141579 " transform="rotate(78, 400, 400)"></path><path d="M125.00000190734869 405.23179400957224C135.41666886300757 393.6692936887909 154.1666693831936 342.38804226608215 175.00000329451137 349.7317924698217C195.83333720582914 357.0755426735612 204.16667077035626 436.2630448704801 225.00000468167406 440.48179498752194C245.83333859299182 444.7005451045638 254.16667215751897 372.01304308797603 275.00000606883674 369.98179303162254C295.8333399801545 367.95054297526906 304.16667354468166 429.9505446953508 325.0000074559994 430.7317947170252C345.8333413673172 431.51304473869965 354.16667493184434 369.98179303162254 375.00000884316205 373.73179313565976C395.8333427544799 377.48179323969697 404.166676319007 449.3567952337433 425.0000102303248 448.7317952164038C445.83334414164256 448.10679519906427 454.1666777061697 372.13804309144393 475.0000116174875 370.73179305243C495.83334552880524 369.32554301341605 504.1666790933323 438.3880449294345 525.0000130046501 441.98179502913683C545.8333469159679 445.57554512883917 554.166680480495 386.1067934789825 575.0000143918128 387.98179353100113C595.8333483031306 389.85679358301974 604.1666818676579 451.45054529183074 625.0000157789755 450.9817952788261C645.8333496902933 450.51304526582146 664.5833502104794 399.3255438457137 675.0000171661382 385.7317934685788 " transform="rotate(75, 400, 400)"></path><path d="M136.00000183105476 405.0225086688671C146.00000210848728 393.922508360917 164.00000260786584 344.6925069951166 184.00000316273093 351.74250719070653C204.00000371759597 358.7925073862965 212.000003939542 434.81250949533865 232.00000449440708 438.8625096076988C252.00000504927215 442.912509720059 260.0000052712182 373.13250778413476 280.0000058260833 371.1825077300354C300.0000063809483 369.23250767593606 308.00000660289436 428.7525093272145 328.00000715775946 429.50250934802193C348.00000771262455 430.2525093688294 356.00000793457053 371.1825077300354 376.0000084894356 374.7825078299111C396.00000904430067 378.3825079297868 404.0000092662467 447.3825098440713 424.0000098211118 446.7825098274254C444.0000103759769 446.18250981077944 452.0000105979229 373.2525077874639 472.000011152788 371.90250775001056C492.000011707653 370.55250771255714 500.00001192959905 436.8525095519349 520.0000124844642 440.3025096476491C540.0000130393292 443.75250974336336 548.0000132612753 386.662508159501 568.0000138161404 388.46250820943885C588.0000143710055 390.26250825937666 596.0000145929514 449.39250989983526 616.0000151478165 448.9425098873508C636.0000157026815 448.49250987486636 654.00001620206 399.35250851156286 664.0000164794926 386.3025081495134 " transform="rotate(72, 400, 400)"></path><path d="M146.9999864959717 404.81325384574006C156.5833200951779 394.1757535506212 173.83332057374906 346.9970022417292 192.9999877721614 353.75325242916955C212.16665497057375 360.5095026166099 219.8333218499387 433.36200463777527 238.99998904835104 437.2432547454538C258.1666562467634 441.1245048531323 265.8333231261284 374.25200299787156 284.9999903245407 372.38325294602635C304.1666575229531 370.51450289418113 311.83332440231806 427.55450447665635 330.9999916007304 428.2732544965968C350.1666587991428 428.99200451653724 357.83332567850766 372.38325294602635 376.99999287692003 375.8332530417406C396.1666600753324 379.28325313745484 403.8333269546974 445.40825497197744 422.99999415310975 444.8332549560251C442.1666613515221 444.25825494007273 449.83332823088705 374.367003001062 468.9999954292994 373.0732529651692C488.16666262771173 371.77950292927636 495.83332950707666 435.31700469201337 514.9999967054891 438.62325478373947C534.1666639039015 441.9295048754656 541.8333307832664 387.2182533575975 560.9999979816788 388.94325340545464C580.1666651800912 390.66825345331176 587.8333320594561 447.3345050254179 606.9999992578685 446.90325501345365C626.1666664562807 446.4720050014893 643.4166669348518 399.37950369499015 653.000000534058 386.8732533480261 " transform="rotate(69, 400, 400)"></path><path d="M157.99998641967778 404.6039608756404C167.1666533406576 394.42896059335277 183.6666537984213 349.3014593413691 201.99998764038094 355.76395952065985C220.33332148234058 362.2264596999506 227.66665501912445 431.9114616332393 245.9999888610841 435.62396173623614C264.33332270304373 439.3364618392329 271.6666562398276 375.3714600646357 289.99999008178725 373.5839600150447C308.3333239237469 371.7964599654536 315.6666574605308 426.3564614791255 333.99999130249046 427.043961498199C352.3333251444501 427.73146151727246 359.6666586812339 373.5839600150447 377.99999252319355 376.8839601065974C396.3333263651532 380.18396019815015 403.6666599019371 443.4339619529109 421.99999374389677 442.88396193765215C440.3333275858564 442.33396192239337 447.6666611226403 375.48146006768746 465.9999949645999 374.2439600333552C484.3333288065595 373.0064599990229 491.6666623433434 433.78146168511915 509.9999961853031 436.9439617728572C528.3333300272627 440.10646186059523 535.6666635640465 387.77396040872145 553.9999974060063 389.4239604544978C572.3333312479659 391.07396050027415 579.6666647847499 445.27646200402785 597.9999986267094 444.86396199258377C616.3333324686689 444.4514619811397 632.8333329264326 399.40646073144484 641.9999998474125 387.44396039956615 " transform="rotate(66, 400, 400)"></path><path d="M168.99998634338385 404.3947022378161C177.7499865861373 394.6822019683597 193.49998702309355 351.6059507732844 210.9999875086005 357.7747009444256C228.4999879941074 363.9434511155668 235.49998818831023 430.46095296097866 252.99998867381714 434.00470305929383C270.49998915932406 437.548453157609 277.49998935352687 376.4909514636753 294.9999898390338 374.78470141633835C312.4999903245407 373.0784513690014 319.4999905187435 425.1584528138701 336.99999100425043 425.8147028320766C354.49999148975735 426.4709528502831 361.49999168396016 374.78470141633835 378.9999921694671 377.93470150372957C396.49999265497405 381.08470159112085 403.4999928491768 441.4597032661198 420.9999933346837 440.9347032515546C438.4999938201907 440.4097032369894 445.4999940143935 376.5959514665883 462.9999944999004 375.4147014338166C480.4999949854073 374.2334514010449 487.4999951796101 432.2459530105004 504.99999566511707 435.2647030942503C522.4999961506239 438.2834531780003 529.4999963448267 388.3297017921207 546.9999968303338 389.90470183581635C564.4999973158407 391.479701879512 571.4999975100434 443.21845331491323 588.9999979955503 442.82470330398934C606.4999984810572 442.43095329306544 622.2499989180135 399.43345210017486 630.999999160767 388.0147017833816 " transform="rotate(63, 400, 400)"></path><path d="M179.9999862670899 404.18542834120274C188.33331983161702 394.9354280845776 203.3333202477658 353.91042694641067 219.99998737682003 359.78542710940224C236.66665450587425 365.66042727239386 243.33332135749595 429.010429029929 259.9999884865502 432.38542912356246C276.6666556156044 435.76042921719596 283.33332246722614 377.61042760392576 299.99998959628033 375.98542755884296C316.6666567253345 374.3604275137602 323.3333235769563 423.9604288898256 339.9999907060105 424.5854289071651C356.6666578350647 425.21042892450464 363.3333246866864 375.98542755884296 379.9999918157406 378.98542764207275C396.6666589447948 381.9854277253025 403.33332579641655 439.4854293205396 419.9999929254708 438.985429306668C436.666660054525 438.4854292927963 443.3333269061467 377.7104276067001 459.9999940352009 376.58542757548895C476.6666611642551 375.46042754427776 483.33332801587676 430.71042907709256 499.99999514493106 433.5854291568544C516.6666622739854 436.4604292366163 523.333329125607 388.885427916731 539.9999962546613 390.3854279583458C556.6666633837156 391.8854279999607 563.3333302353371 441.16042936700956 579.9999973643913 440.78542935660585C596.6666644934455 440.4104293462021 611.6666649095944 399.4604282101159 619.9999984741214 388.58542790840795 " transform="rotate(60, 400, 400)"></path><path d="M190.99998619079594 403.97615825928665C198.9166530770967 395.1886580154928 213.16665347243807 356.21490693423414 228.99998724503956 361.7961570890762C244.83332101764108 367.37740724391824 251.1666545266817 427.5599089135766 266.99998829928325 430.7661590025284C282.8333220718847 433.97240909148024 289.16665558092535 378.7299075588735 304.99998935352687 377.1861575160449C320.83332312612833 375.6424074732162 327.166656635169 422.7624087804784 342.9999904077705 423.3561587969509C358.833324180372 423.94990881342346 365.1666576894126 377.1861575160449 380.9999914620141 380.03615759511314C396.8333252346156 382.8861576741814 403.1666587436563 437.51115918965667 418.99999251625775 437.0361591764786C434.83332628885927 436.56115916330054 441.1666597978999 378.8249075615091 456.99999357050143 377.75615753185855C472.8333273431029 376.6874075022079 479.1666608521435 429.17490895838193 494.99999462474506 431.90615903415573C510.8333283973466 434.6374091099295 517.1666619063872 389.44115785603844 532.9999956789886 390.8661578955726C548.8333294515903 392.2911579351067 555.1666629606309 439.1024092338031 570.9999967332324 438.74615922391956C586.8333305058338 438.38990921403604 601.0833309011753 399.4874081347541 608.9999977874759 389.1561578481316 " transform="rotate(57, 400, 400)"></path><path d="M201.999986114502 403.76688054797603C209.49998632257638 395.44188031701344 222.99998669711033 358.51937929266313 237.99998711325912 363.8068794393556C252.99998752940792 369.09437958604803 258.99998769586745 426.10938116782967 273.99998811201624 429.1468812520998C288.9999885281651 432.18438133636994 294.99998869462456 379.84937988442675 309.9999891107734 378.3868798438522C324.9999895269222 376.9243798032777 330.99998969338174 421.56438104173657 345.99999010953053 422.12688105734213C360.9999905256793 422.6893810729477 366.9999906921388 378.3868798438522 381.99999110828765 381.086879918759C396.99999152443644 383.7868799936658 402.99999169089597 435.53688142937915 417.99999210704476 435.0868814168947C432.99999252319355 434.63688140441025 438.99999268965314 379.93937988692363 453.99999310580193 378.92687985883356C468.9999935219507 377.91437983074354 474.9999936884102 427.63938121027684 489.99999410455905 430.2268812820625C504.9999945207079 432.81438135384815 510.9999946871674 389.9968801659514 525.9999951033162 391.3468802034048C540.9999955194651 392.6968802408582 546.9999956859245 437.04438147120214 561.9999961020733 436.70688146183875C576.9999965182221 436.3693814524754 590.499996892756 399.5143804299978 597.9999971008303 389.72688015846074 " transform="rotate(54, 400, 400)"></path><path d="M212.99998603820805 403.5576066513627C220.08331956805608 395.69510643323133 232.8333199217826 360.8238554657894 246.99998698147868 365.81760560433224C261.16665404117475 370.81135574287515 266.8333208650532 424.65885723677997 280.9999879247493 427.52760731636846C295.16665498444536 430.3963573959569 300.83332180832383 380.9688560246772 314.99998886801995 379.58760598635683C329.166655927716 378.2063559480365 334.83332275159444 420.3663571176921 348.99998981129056 420.89760713243066C363.1666568709866 421.42885714716925 368.83332369486504 379.58760598635683 382.99999075456117 382.1376060571022C397.16665781425723 384.68760612784746 402.8333246381357 433.56260748379896 416.9999916978318 433.1376074720081C431.1666587575279 432.7126074602172 436.8333255814063 381.0538560270354 450.99999264110244 380.09760600050595C465.1666597007985 379.14135597397643 470.8333265246769 426.103857276869 484.99999358437304 428.5476073446666C499.16666064406917 430.99135741246414 504.8333274679476 390.55260629056164 518.9999945276437 391.8276063259343C533.1666615873398 393.1026063613069 538.8333284112182 434.98635752329847 552.9999954709143 434.66760751445526C567.1666625306103 434.3488575056121 579.9166628843368 399.5413565399388 586.9999964141849 390.2976062834871 " transform="rotate(51, 400, 400)"></path><path d="M223.9999859619141 403.34833656944653C230.6666528135358 395.9483363641465 242.66665314645485 363.12833545361286 255.99998684969822 367.8283355840062C269.3333205529416 372.5283357143995 274.66665403423895 423.2083371204276 287.99998773748234 425.90833719533435C301.3333214407257 428.6083372702411 306.6666549220231 382.08833597962496 319.99998862526644 380.78833594355876C333.33332232850984 379.4883359074925 338.6666558098072 419.16833700834485 351.99998951305054 419.66833702221646C365.33332321629393 420.1683370360881 370.6666566975913 380.78833594355876 383.9999904008347 383.18833601014256C397.3333241040781 385.58833607672636 402.66665758537545 431.588337352916 415.99999128861884 431.18833734181874C429.3333249918621 430.78833733072145 434.66665847315954 382.16833598184445 447.9999921764029 381.2683359568755C461.3333258796463 380.3683359319066 466.6666593609436 424.5683371581584 479.99999306418704 426.86833722196786C493.33332676743044 429.1683372857774 498.6666602487278 391.1083362298691 511.99999395197113 392.30833626316104C525.3333276552146 393.50833629645297 530.666661136512 432.928337390092 543.9999948397553 432.62833738176903C557.3333285429986 432.32833737344606 569.3333288759177 399.56833646457704 575.9999957275394 390.86833622321075 " transform="rotate(48, 400, 400)"></path><path d="M234.99998588562016 403.13907220957634C241.2499860590155 396.20157201710754 252.49998637112708 365.4328211634823 264.99998671791775 369.839071285726C277.4999870647084 374.24532140796975 282.49998720342467 421.75782272612105 294.99998755021534 424.2890727963462C307.499987897006 426.8203228665713 312.4999880357223 383.20782165661865 324.999988382513 381.98907162280653C337.49998872930365 380.7703215889945 342.49998886801995 417.97032262104347 354.9999892148106 418.43907263404816C367.4999895616013 418.9078226470528 372.49998970031754 381.98907162280653 384.9999900471082 384.23907168522885C397.4999903938989 386.48907174765117 402.49999053261513 429.614072944079 414.9999908794058 429.2390729336753C427.49999122619647 428.8640729232716 432.4999913649127 383.2828216586994 444.9999917117034 382.43907163529104C457.49999205849406 381.59532161188264 462.4999921972103 423.0328227614937 474.999992544001 425.1890728213151C487.4999928907917 427.3453228811365 492.49999302950795 391.66407189122253 504.9999933762987 392.78907192243366C517.4999937230893 393.91407195364485 522.4999938618056 430.8703229789315 534.9999942085963 430.58907297112864C547.4999945553868 430.30782296332586 558.7499948674986 399.5953221112612 564.9999950408939 391.4390718849803 " transform="rotate(45, 400, 400)"></path><path d="M245.9999858093262 402.9298059423575C251.83331930449518 396.45480576271996 262.33331959579937 367.7373049660031 273.9999865861373 371.8498050800972C285.66665357647526 375.96230519419134 290.33332037261044 420.30730642446593 301.9999873629484 422.66980649000936C313.6666543532864 425.0323065555528 318.3333211494216 384.32730542626365 329.9999881397595 383.18980539470573C341.66665513009747 382.05230536314775 346.33332192623266 416.7723063263935 357.9999889165706 417.20980633853117C369.66665590690855 417.6473063506689 374.3333227030438 383.18980539470573 385.99998969338174 385.28980545296656C397.6666566837197 387.3898055112274 402.3333234798548 427.63980662789334 413.9999904701928 427.2898066181832C425.6666574605308 426.9398066084731 430.33332425666595 384.3973054282057 441.99999124700395 383.60980540635785C453.66665823734184 382.82230538451006 458.3333250334771 421.4973064574804 469.999992023815 423.5098065133137C481.66665901415297 425.522306569147 486.33332581028816 392.21980564522727 497.99999280062616 393.2698056743577C509.6666597909641 394.3198057034881 514.3333265870992 428.8123066604223 525.9999935774372 428.5498066531397C537.6666605677751 428.2873066458571 548.1666608590793 399.6223058505967 553.9999943542483 392.0098056394012 " transform="rotate(42, 400, 400)"></path><path d="M256.99998573303225 402.7205339530928C262.41665254997486 396.7080337862865 272.1666528204716 370.041783046478 282.9999864543569 373.8605331524225C293.8333200882421 377.67928325836704 298.1666535417962 418.85678440076487 308.99998717568144 421.0505344616266C319.83332080956666 423.24428452248844 324.1666542631208 385.44678347386275 334.999987897006 384.39053344455897C345.8333215308913 383.3342834152552 350.1666549844454 415.57428430969765 360.99998861833063 415.98053432096833C371.8333222522159 416.386784332239 376.16665570577 384.39053344455897 386.99998933965526 386.3405334986583C397.8333229735405 388.29053355275767 402.1666564270946 425.6655345896618 412.9999900609798 425.3405345806452C423.83332369486504 425.0155345716287 428.1666571484192 385.5117834756661 438.9999907823044 384.7805334553788C449.83332441618967 384.0492834350916 454.16665786974374 419.96178443142117 464.999991503629 421.8305344832664C475.8333251375143 423.6992845351116 480.1666585910683 392.77553367718616 490.99999222495364 393.7505337042358C501.83332585883886 394.7255337312855 506.166659312393 426.75428461986724 516.9999929462782 426.5105346131048C527.8333265801634 426.2667846063424 537.5833268506601 399.6492838678863 542.9999936676028 392.5805336717762 " transform="rotate(39, 400, 400)"></path><path d="M267.9999856567383 402.51125433443354C272.99998579545456 396.96125418045847 281.9999860451438 372.3462534975583 291.99998632257643 375.87125359535327C301.9999866000089 379.39625369314825 305.99998671098194 417.4062547476693 315.9999869884145 419.4312548038494C325.99998726584704 421.4562548600295 329.99998737682006 386.5662538920674 339.99998765425255 385.5912538650177C349.9999879316851 384.61625383796803 353.9999880426581 414.37625466360726 363.99998832009067 414.75125467401097C373.9999885975232 415.1262546844147 377.9999887084962 385.5912538650177 387.9999889859287 387.39125391495554C397.9999892633613 389.1912539648934 401.9999893743343 423.6912549220357 411.99998965176684 423.3912549137127C421.9999899291994 423.09125490538975 425.9999900401724 386.626253893732 435.9999903176049 385.95125387500525C445.99999059503745 385.2762538562786 449.99999070601046 418.42625477596744 459.999990983443 420.15125482382456C469.99999126087556 421.8762548716817 473.9999913718486 393.33125407975047 483.9999916492811 394.2312541047194C493.9999919267137 395.13125412968833 497.99999203768664 424.6962549499176 507.9999923151192 424.4712549436754C517.9999925925517 424.24625493743315 526.999992842241 399.67625425578143 531.9999929809572 393.1512540747567 " transform="rotate(36, 400, 400)"></path><path d="M279.0000008392334 402.301991881912C283.58333429972333 397.21449174076815 291.8333345286052 374.65074111477634 301.000001449585 377.88199120442175C310.1666683705648 381.1132412940671 313.8333351389567 415.9557422607114 323.0000020599366 417.81199231220984C332.16666898091637 419.66824236370826 335.83333574930833 387.68574147640965 345.00000267028815 386.79199145161414C354.166669591268 385.8982414268186 357.83333635965994 413.17824218365456 367.00000328063976 413.5219921931913C376.1666702016196 413.86574220272803 379.8333369700115 386.79199145161414 389.0000038909913 388.4419914973905C398.16667081197113 390.09199154316684 401.8333375803631 421.7169924205473 411.0000045013429 421.44199241291784C420.16667142232274 421.16699240528845 423.8333381907147 387.74074147793556 433.00000511169446 387.1219914607694C442.1666720326743 386.50324144360326 445.83333880106625 416.8907422866514 455.00000572204607 418.4719923305204C464.1666726430259 420.0532423743894 467.8333394114178 393.8869916484525 477.0000063323977 394.7119916713407C486.1666732533775 395.53699169422885 489.83334002176946 422.6382424461057 499.0000069427492 422.4319924403837C508.166673863729 422.22574243466164 516.4166740926108 399.7032418098142 521.0000075531008 393.72199164387484 " transform="rotate(33, 400, 400)"></path><path d="M290.00000076293946 402.09271798529863C294.16666754520304 397.4677178569861 301.66666775327747 376.9552172879026 310.00000131780456 379.8927173693984C318.33333488233166 382.8302174508942 321.6666683081425 414.5052183296618 330.0000018726696 416.1927183764785C338.33333543719675 417.8802184232952 341.6666688630076 388.8052176166601 350.0000024275347 387.99271759411874C358.3333359920618 387.1802175715774 361.66666941787264 411.98021825961007 370.0000029823998 412.2927182682798C378.3333365469269 412.6052182769496 381.66666997273774 387.99271759411874 390.00000353726483 389.49271763573364C398.3333371017919 390.99271767734854 401.66667052760283 419.74271847496703 410.0000040921299 419.4927184680312C418.333337656657 419.2427184610954 421.6666710824679 388.85521761804733 430.00000464699497 388.2927176024417C438.3333382115221 387.73021758683615 441.6666716373329 415.3552183532435 450.00000520186006 416.79271839312446C458.3333387663872 418.2302184330054 461.666672192198 394.4427177730627 470.00000575672516 395.1927177938702C478.3333393212523 395.9427178146776 481.6666727470631 420.58021849820204 490.0000063115902 420.3927184930002C498.3333398761173 420.20521848779833 505.8333400841917 399.7302179197552 510.00000686645524 394.29271776890124 " transform="rotate(30, 400, 400)"></path><path d="M301.00000068664554 401.8834326445935C304.75000079068275 397.7209325291122 311.5000009779497 379.25968201693706 319.00000118602406 381.9034320902833C326.5000013940985 384.5471821636295 329.5000014773283 413.0546829545203 337.00000168540265 414.57343299665536C344.5000018934771 416.09218303879044 347.5000019767068 389.92468231281885 355.00000218478124 389.1934322925316C362.50000239285566 388.4621822722443 365.5000024760854 410.7821828914738 373.00000268415977 411.06343289927656C380.5000028922342 411.34468290707935 383.50000297546393 389.1934322925316 391.00000318353835 390.54343232998497C398.5000033916127 391.8934323674384 401.5000034748425 417.76843308529504 409.00000368291694 417.5434330790528C416.5000038909913 417.3184330728106 419.5000039742211 389.9696823140673 427.00000418229547 389.46343230002225C434.5000043903699 388.95718228597724 437.50000447359963 413.8196829757439 445.00000468167406 415.11343301163674C452.5000048897485 416.40718304752954 455.5000049729782 394.9984324535812 463.00000518105264 395.67343247230787C470.50000538912707 396.34843249103454 473.5000054723568 418.5221831062065 481.0000056804312 418.35343310152484C488.5000058885056 418.1846830968432 495.25000607577255 399.75718258560437 499.0000061798097 394.86343244983584 " transform="rotate(27, 400, 400)"></path><path d="M311.999992980957 401.67417209942056C315.3333264067679 397.9741719967705 321.3333265732274 381.5641715415037 327.9999934248491 383.91417160670034C334.6666602764708 386.264171671897 337.3333270171195 411.60417237491106 343.99999386874117 412.9541724123644C350.66666072036287 414.3041724498178 353.33332746101155 391.04417180450974 359.99999431263325 390.39417178647665C366.66666116425495 389.74417176844355 369.3333279049036 409.58417231886966 375.99999475652527 409.83417232580547C382.66666160814697 410.08417233274133 385.33332834879565 390.39417178647665 391.99999520041735 391.5941718197686C398.66666205203904 392.79417185306045 401.3333287926877 415.7941724911553 407.9999956443094 415.59417248560663C414.66666249593106 415.394172480058 417.33332923657974 391.08417180561946 423.99999608820144 390.634171793135C430.66666293982314 390.18417178065056 433.3333296804718 412.2841723937765 439.9999965320935 413.4341724256812C446.6666633837152 414.58417245758596 449.3333301243639 395.5541719296318 455.9999969759856 396.15417194627776C462.6666638276073 396.75417196292375 465.333330568256 416.46417250974326 471.9999974198777 416.3141725055818C478.6666642714993 416.1641725014203 484.66666443795884 399.7841720469858 487.9999978637697 395.4341719263026 " transform="rotate(24, 400, 400)"></path><path d="M322.9999929046631 401.4649039248531C325.9166596522476 398.2274038350343 331.1666597978997 383.86865343667586 336.99999329306866 385.9249034937229C342.8333267882376 387.98115355077 345.1666601863052 410.15365416590726 350.99999368147417 411.334904198679C356.8333271766432 412.51615423145074 359.1666605747108 392.16365366680617 364.9999940698798 391.59490365102715C370.83332756504876 391.0261536352482 373.1666609631163 408.38615411687107 378.9999944582853 408.6049041229399C384.8333279534543 408.82365412900873 387.1666613515219 391.59490365102715 392.99999484669087 392.6449036801576C398.83332834185984 393.694903709288 401.1666617399274 413.819904267621 406.99999523509643 413.6449042627659C412.8333287302654 413.46990425791085 415.166662128333 392.19865366777714 420.99999562350195 391.80490365685324C426.8333291186709 391.41115364592935 429.16666251673854 410.7486541824145 434.9999960119075 411.7549042103312C440.8333295070765 412.7611542382478 443.1666629051441 396.109903776288 448.9999964003131 396.6349037908532C454.83332989548205 397.15990380541837 457.1666632935496 414.4061542838855 462.9999967887186 414.2749042802442C468.83333028388756 414.1436542766029 474.08333042953967 399.8111538789727 476.99999717712416 396.0049037733749 " transform="rotate(21, 400, 400)"></path><path d="M333.99999282836916 401.255630981914C336.4999928977273 398.4806309049265 340.9999930225719 386.17313056347643 345.9999931612882 387.9356306123739C350.99999330000446 389.69813066127136 352.999993355491 408.7031311885319 357.9999934942073 409.715631216622C362.9999936329235 410.728131244712 364.99999368841003 393.28313076073096 369.9999938271263 392.79563074720613C374.9999939658426 392.3081307336813 376.99999402132903 407.1881311465009 381.99999416004533 407.37563115170275C386.99999429876164 407.5631311569046 388.9999943542481 392.79563074720613 393.99999449296433 393.69563077217504C398.99999463168064 394.59563079714394 400.99999468716715 411.8456312757151 405.9999948258834 411.6956312715536C410.9999949645997 411.54563126739214 412.9999950200862 393.31313076156323 417.99999515880245 392.9756307521999C422.9999952975187 392.63813074283655 424.99999535300526 409.213131202681 429.9999954917215 410.0756312266095C434.99999563043775 410.9381312505381 436.9999956859243 396.6656308545725 441.99999582464056 397.11563086705695C446.9999959633568 397.56563087954146 448.9999960188433 412.34813128965607 453.9999961575596 412.23563128653495C458.99999629627587 412.12313128341384 463.4999964211205 399.838130942588 465.9999964904786 396.5756308520756 " transform="rotate(18, 400, 400)"></path><path d="M344.99999656677244 401.0463599463236C347.08332995790425 398.73385988216734 350.83333006194147 388.4776095976256 354.99999684420504 389.9463596383735C359.16666362646856 391.41510967912143 360.833330339374 407.25261011850523 364.99999712163753 408.0963601419136C369.1666639039011 408.9401101653219 370.8333306168065 394.4026097620044 374.9999973990701 393.9963597507337C379.16666418133366 393.590109739463 380.83333089423905 405.99011008347935 384.99999767650263 406.14636008781423C389.16666445876615 406.3026100921491 390.8333311716716 393.9963597507337 394.9999979539351 394.74635977154117C399.1666647361987 395.4963597923486 400.83333144910415 409.87136019115786 404.9999982313677 409.74636018768996C409.16666501363125 409.62136018422206 410.8333317265367 394.42760976269795 414.9999985088002 394.1463597548952C419.1666652910638 393.8651097470924 420.8333320039692 407.6776101302961 424.99999878623277 408.39636015023655C429.16666556849634 409.115110170177 430.83333228140174 397.2213598402057 434.9999990636653 397.5963598506094C439.1666658459289 397.9713598610131 440.8333325588343 410.29011020277534 444.9999993410978 410.1963602001744C449.1666661233614 410.1026101975735 452.9166662273986 399.8651099135519 454.99999961853035 397.14635983812497 " transform="rotate(15, 400, 400)"></path><path d="M355.9999964904785 400.8370841423616C357.66666320338396 398.98708409103665 360.6666632866137 390.7820838634032 363.99999671242455 391.95708389600156C367.3333301382354 393.13208392859985 368.66666350855974 405.8020842801069 371.9999969343706 406.4770842988336C375.33333036018144 407.1520843175603 376.6666637305058 395.52208399490627 379.9999971563166 395.19708398588966C383.3333305821275 394.8720839768731 384.6666639524518 404.7920842520862 387.9999973782626 404.91708425555413C391.3333308040735 405.04208425902203 392.66666417439785 395.19708398588966 395.99999760020864 395.79708400253566C399.33333102601955 396.3970840191816 400.6666643963439 407.897084338229 403.9999978221547 407.79708433545466C407.33333124796553 407.69708433268033 408.6666646182899 395.5420839954611 411.9999980441007 395.3170839892189C415.33333146991157 395.09208398297665 416.6666648402359 406.1420842895396 419.99999826604676 406.717084305492C423.3333316918576 407.29208432144435 424.66666506218195 397.7770840574673 427.9999984879928 398.07708406579025C431.33333191380365 398.3770840741132 432.666665284128 408.232084347523 435.99999870993884 408.1570843454423C439.33333213574963 408.08208434336154 442.3333322189794 399.89208411614425 443.9999989318849 397.7170840558027 " transform="rotate(12, 400, 400)"></path><path d="M366.9999964141846 400.62781406044553C368.2499964488636 399.2403140219518 370.499996511286 393.08656385122674 372.9999965806441 393.96781387567546C375.49999665000223 394.84906390012424 376.49999667774546 404.35156416375446 378.99999674710364 404.8578141777995C381.49999681646176 405.36406419184453 382.49999684420504 396.641563949854 384.9999969135631 396.3978139430916C387.4999969829213 396.1540639363292 388.4999970106645 403.59406414273894 390.9999970800227 403.68781414533987C393.4999971493808 403.78156414794086 394.49999717712404 396.3978139430916 396.99999724648217 396.84781395557604C399.49999731584035 397.2978139680605 400.4999973435836 405.92281420734605 402.9999974129417 405.8478142052653C405.4999974822998 405.77281420318457 406.4999975100431 396.65656395027014 408.9999975794012 396.48781394558847C411.49999764875935 396.3190639409068 412.49999767650263 404.606564170829 414.99999774586075 405.0378141827933C417.4999978152189 405.4690641947576 418.49999784296216 398.3328139967748 420.9999979123203 398.55781400301703C423.4999979816784 398.78281400925925 424.4999980094217 406.17406421431656 426.9999980787798 406.117814212756C429.49999814813793 406.06156421119545 431.74999821056025 399.91906404078253 432.99999824523934 398.28781399552634 " transform="rotate(9, 400, 400)"></path><path d="M378.0000001525879 400.41854397852944C378.8333335090406 399.49354395286696 380.3333335506555 395.39104383905027 382.0000002635609 395.9785438553494C383.66666697646633 396.56604387164856 384.3333336616285 402.9010440474021 386.0000003745339 403.2385440567654C387.66666708743935 403.57604406612876 388.3333337726015 397.76104390480174 390.0000004855069 397.59854390029346C391.66666719841237 397.4360438957852 392.33333388357454 402.3960440333917 394.00000059647994 402.45854403512567C395.6666673093854 402.5210440368596 396.33333399454756 397.59854390029346 398.00000070745295 397.89854390861643C399.6666674203584 398.19854391693946 400.3333341055206 403.9485440764631 402.000000818426 403.89854407507596C403.6666675313314 403.8485440736888 404.33333421649354 397.7710439050792 406.000000929399 397.65854390195807C407.66666764230445 397.54604389883696 408.33333432746656 403.07104405211845 410.000001040372 403.35854406009463C411.66666775327747 403.6460440680708 412.3333344384396 398.88854393608227 414.00000115134503 399.03854394024376C415.6666678642505 399.18854394440524 416.3333345494126 404.11604408111015 418.00000126231805 404.0785440800698C419.66666797522345 404.0410440790294 421.16666801683834 399.94604396542076 422.00000137329107 398.85854393525 " transform="rotate(6, 400, 400)"></path><path d="M389.00000007629393 400.2092719892647C389.4166667545203 399.7467719764335 390.1666667753277 397.6955219195251 391.00000013178044 397.9892719276747C391.83333348823317 398.2830219358243 392.1666668308143 401.45052202370107 393.00000018726695 401.61927202838274C393.8333335437197 401.7880220330644 394.16666688630073 398.8805219524009 395.00000024275346 398.79927195014676C395.8333335992062 398.7180219478926 396.1666669417873 401.19802201669586 397.00000029823997 401.22927201756283C397.8333336546927 401.2605220184298 398.16666699727375 398.79927195014676 399.0000003537265 398.94927195430824C399.8333337101792 399.0992719584697 400.16666705276026 401.97427203823156 401.000000409213 401.949272037538C401.8333337656657 401.9242720368444 402.16666710824677 398.8855219525396 403.0000004646995 398.82927195097903C403.8333338211522 398.7730219494185 404.1666671637333 401.5355220260592 405.000000520186 401.6792720300473C405.83333387663873 401.8230220340354 406.1666672192198 399.4442719680411 407.0000005756725 399.51927197012185C407.83333393212524 399.59427197220265 408.1666672747063 402.05802204055504 409.000000631159 402.03927204003486C409.8333339876117 402.0205220395147 410.5833340084192 399.9730219827104 411.00000068664554 399.42927196762497 " transform="rotate(3, 400, 400)"></path></g></svg>